<svg width="53" height="53" viewBox="0 0 53 53" fill="none" xmlns="http://www.w3.org/2000/svg">
<rect x="0.015625" y="0.84375" width="52" height="52" rx="26" fill="white" fill-opacity="0.1"/>
<path d="M26.0156 16.8423C31.5396 16.8423 36.0176 21.3203 36.0176 26.8443C36.0176 32.3673 31.5396 36.8453 26.0156 36.8453C20.4916 36.8453 16.0136 32.3673 16.0136 26.8443C16.0136 21.3203 20.4916 16.8423 26.0156 16.8423ZM26.0156 18.3423C24.8914 18.3301 23.776 18.541 22.7338 18.9628C21.6917 19.3845 20.7435 20.0088 19.9443 20.7995C19.145 21.5901 18.5105 22.5314 18.0774 23.5689C17.6444 24.6064 17.4214 25.7195 17.4214 26.8438C17.4214 27.968 17.6444 29.0811 18.0774 30.1186C18.5105 31.1562 19.145 32.0975 19.9443 32.8881C20.7435 33.6788 21.6917 34.303 22.7338 34.7248C23.776 35.1466 24.8914 35.3575 26.0156 35.3453C28.2476 35.311 30.3767 34.4004 31.943 32.8098C33.5093 31.2193 34.3872 29.0766 34.3872 26.8443C34.3872 24.612 33.5093 22.4693 31.943 20.8787C30.3767 19.2882 28.2476 18.3765 26.0156 18.3423ZM22.4776 29.6273C22.8984 30.1633 23.4356 30.5965 24.0485 30.8942C24.6615 31.1918 25.3342 31.3461 26.0156 31.3453C26.6962 31.346 27.368 31.1922 27.9804 30.8952C28.5928 30.5983 29.1297 30.1661 29.5506 29.6313C29.6739 29.4752 29.8542 29.3745 30.0518 29.3513C30.2494 29.3282 30.448 29.3845 30.6041 29.5078C30.7602 29.6311 30.8609 29.8114 30.884 30.009C30.9072 30.2065 30.8509 30.4052 30.7276 30.5613C30.1663 31.2739 29.4506 31.8497 28.6344 32.2453C27.8181 32.641 26.9227 32.8461 26.0156 32.8453C25.1074 32.846 24.2108 32.6403 23.3938 32.2435C22.5768 31.8468 21.8607 31.2695 21.2996 30.5553C21.1818 30.3986 21.13 30.2021 21.1553 30.0077C21.1806 29.8134 21.2809 29.6366 21.4349 29.5154C21.5889 29.3941 21.7842 29.3379 21.9791 29.3588C22.174 29.3797 22.3529 29.4761 22.4776 29.6273ZM23.0156 23.5933C23.1827 23.5886 23.349 23.6174 23.5047 23.678C23.6604 23.7387 23.8024 23.83 23.9223 23.9465C24.0421 24.063 24.1374 24.2023 24.2024 24.3563C24.2674 24.5102 24.301 24.6757 24.301 24.8428C24.301 25.0099 24.2674 25.1753 24.2024 25.3293C24.1374 25.4832 24.0421 25.6226 23.9223 25.7391C23.8024 25.8556 23.6604 25.9469 23.5047 26.0075C23.349 26.0682 23.1827 26.097 23.0156 26.0923C22.6903 26.0831 22.3815 25.9474 22.1547 25.7141C21.9279 25.4808 21.801 25.1682 21.801 24.8428C21.801 24.5174 21.9279 24.2048 22.1547 23.9715C22.3815 23.7382 22.6903 23.6025 23.0156 23.5933ZM29.0156 23.5933C29.1827 23.5886 29.349 23.6174 29.5047 23.678C29.6604 23.7387 29.8024 23.83 29.9223 23.9465C30.0421 24.063 30.1374 24.2023 30.2024 24.3563C30.2674 24.5102 30.301 24.6757 30.301 24.8428C30.301 25.0099 30.2674 25.1753 30.2024 25.3293C30.1374 25.4832 30.0421 25.6226 29.9223 25.7391C29.8024 25.8556 29.6604 25.9469 29.5047 26.0075C29.349 26.0682 29.1827 26.097 29.0156 26.0923C28.6903 26.0831 28.3815 25.9474 28.1547 25.7141C27.9279 25.4808 27.801 25.1682 27.801 24.8428C27.801 24.5174 27.9279 24.2048 28.1547 23.9715C28.3815 23.7382 28.6903 23.6025 29.0156 23.5933Z" fill="white"/>
</svg>
