<svg width="53" height="53" viewBox="0 0 53 53" fill="none" xmlns="http://www.w3.org/2000/svg">
<mask id="mask0_612_13068" style="mask-type:luminance" maskUnits="userSpaceOnUse" x="0" y="0" width="53" height="53">
<path d="M0.676575 0.939819H52.6825V52.9398H0.676575V0.939819Z" fill="white"/>
</mask>
<g mask="url(#mask0_612_13068)">
<path d="M15.4495 22.7604L14.0356 26.9399H10.4277L16.4799 10.6899H20.6533L26.6795 26.9399H22.8863L21.4724 22.7604H15.4495ZM20.7606 20.3684L18.5536 13.7969H18.3943L16.1873 20.3684H20.7606Z" fill="white" fill-opacity="0.2"/>
<path d="M0.676575 7.43982C0.676575 5.64489 1.31125 4.11284 2.5806 2.84363C3.84996 1.57442 5.38218 0.939819 7.17732 0.939819H29.9299C31.725 0.939819 33.2572 1.57442 34.5266 2.84363C35.796 4.11284 36.4307 5.64489 36.4307 7.43982V17.1898H46.1818C47.9768 17.1898 49.5091 17.8244 50.7784 19.0936C52.0478 20.3628 52.6825 21.8949 52.6825 23.6898V46.4398C52.6825 48.2347 52.0478 49.7667 50.7784 51.036C49.5091 52.3052 47.9768 52.9398 46.1818 52.9398H23.4292C21.634 52.9398 20.1018 52.3052 18.8325 51.036C17.5631 49.7667 16.9284 48.2347 16.9284 46.4398V36.6898H7.17732C5.38218 36.6898 3.84996 36.0552 2.5806 34.786C1.31125 33.5167 0.676575 31.9847 0.676575 30.1898V7.43982ZM7.17732 4.18982C6.27976 4.18982 5.51363 4.50713 4.87896 5.14172C4.24429 5.77632 3.92695 6.54236 3.92695 7.43982V30.1898C3.92695 31.0873 4.24429 31.8534 4.87896 32.488C5.51363 33.1226 6.27976 33.4398 7.17732 33.4398H29.9299C30.8275 33.4398 31.5937 33.1226 32.2284 32.488C32.8631 31.8534 33.1803 31.0873 33.1803 30.1898V7.43982C33.1803 6.54236 32.8631 5.77632 32.2284 5.14172C31.5937 4.50713 30.8275 4.18982 29.9299 4.18982H7.17732ZM30.3785 36.6736C31.0058 37.6518 31.6851 38.5683 32.4262 39.4231C29.9949 41.2918 26.9883 42.6763 23.4292 43.6221C24.0077 44.3273 24.8951 45.6858 25.2331 46.4398C28.8898 45.2731 31.9939 43.6968 34.6137 41.5843C37.1392 43.7456 40.2661 45.3706 44.1373 46.3683C44.5696 45.5428 45.4829 44.1811 46.1818 43.4758C42.5251 42.6536 39.4958 41.2203 37.0157 39.3028C39.2292 36.8751 40.9877 33.9371 42.2846 30.3426H46.1818V26.9398H36.4307V30.3426H38.9172C37.8836 33.0856 36.5119 35.3671 34.7827 37.2651C34.5439 37.0107 34.3121 36.7501 34.0871 36.4836C33.862 36.2168 33.6442 35.9443 33.4338 35.6661C32.9753 35.9601 32.4873 36.1924 31.9698 36.3631C31.4524 36.5336 30.9219 36.6372 30.3785 36.6736Z" fill="white" fill-opacity="0.2"/>
</g>
</svg>
