<svg width="53" height="53" viewBox="0 0 53 53" fill="none" xmlns="http://www.w3.org/2000/svg">
<rect x="0.015625" y="0.84375" width="52" height="52" rx="26" fill="white" fill-opacity="0.1"/>
<path d="M35.5216 25.6147C35.0156 20.8438 31.0406 16.3438 25.5176 16.3438C19.9936 16.3438 15.5156 20.8217 15.5156 26.3457C15.5156 31.8687 18.9916 36.3438 24.5156 36.3438C24.7786 36.3438 25.0396 36.3337 25.2966 36.3137C24.8722 35.8661 24.5136 35.3604 24.2316 34.8118C24.1033 34.5622 23.1766 33.0607 22.5786 30.8447L24.0156 30.8438C24.0966 30.3208 24.2396 29.8178 24.4376 29.3438L22.2556 29.3448C21.9901 27.6914 21.9447 26.0101 22.1206 24.3448H28.9136C28.9596 24.7708 29.0006 24.8927 29.0156 25.3438C29.4988 25.1865 29.999 25.0872 30.5056 25.0477C30.4902 24.7072 30.4562 24.6841 30.4236 24.3448H33.7816C33.9056 24.8577 33.9856 24.6577 34.0116 25.2037L34.0196 25.5208L34.0156 25.3438C34.5566 25.6248 35.0526 25.9808 35.4916 26.3968C35.5116 26.1388 35.5493 25.8753 35.5216 25.6147ZM18.3026 30.8458H21.0256C21.3496 32.1798 21.8166 33.3458 22.3976 34.2558C20.7035 33.5855 19.2685 32.3905 18.3026 30.8458ZM17.2486 24.3617L17.2526 24.3448H20.6106C20.547 25.0092 20.5153 25.6763 20.5156 26.3438C20.5156 27.3868 20.5906 28.3947 20.7336 29.3438H17.5606C17.1993 28.3849 17.0146 27.3685 17.0156 26.3438C17.0156 25.6617 17.0956 24.9987 17.2486 24.3617ZM22.3756 18.4437L22.3986 18.4358C21.6756 19.5668 21.1286 21.0928 20.8156 22.8438H17.7676C18.6716 20.8438 20.3276 19.2568 22.3756 18.4418V18.4437ZM25.4016 17.8498L25.5176 17.8447C26.8236 17.8447 28.1036 19.8797 28.6876 22.8457H22.3456C22.9136 19.9677 24.1356 17.9657 25.4016 17.8498ZM28.7436 18.6097L28.6376 18.4358C30.6943 19.2499 32.3544 20.8311 33.2676 22.8457H30.2186C29.9216 21.1817 29.4136 19.7217 28.7436 18.6097Z" fill="white"/>
<path d="M36.5156 31.8438C36.5156 30.3851 35.9362 28.9861 34.9047 27.9547C33.8733 26.9232 32.4743 26.3438 31.0156 26.3438C29.5569 26.3438 28.158 26.9232 27.1265 27.9547C26.0951 28.9861 25.5156 30.3851 25.5156 31.8438C25.5156 33.3024 26.0951 34.7014 27.1265 35.7328C28.158 36.7643 29.5569 37.3438 31.0156 37.3438C32.4743 37.3438 33.8733 36.7643 34.9047 35.7328C35.9362 34.7014 36.5156 33.3024 36.5156 31.8438ZM31.0156 31.8438H33.0156C33.1482 31.8438 33.2754 31.8964 33.3692 31.9902C33.4629 32.084 33.5156 32.2111 33.5156 32.3438C33.5156 32.4764 33.4629 32.6035 33.3692 32.6973C33.2754 32.7911 33.1482 32.8438 33.0156 32.8438H30.5156C30.3846 32.8438 30.2587 32.7923 30.1652 32.7005C30.0717 32.6087 30.018 32.4838 30.0156 32.3528V29.3427C30.0156 29.2101 30.0683 29.083 30.1621 28.9892C30.2558 28.8954 30.383 28.8427 30.5156 28.8427C30.6482 28.8427 30.7754 28.8954 30.8692 28.9892C30.9629 29.083 31.0156 29.2101 31.0156 29.3427V31.8438Z" fill="white"/>
</svg>
