<svg width="53" height="53" viewBox="0 0 53 53" fill="none" xmlns="http://www.w3.org/2000/svg">
<rect x="0.015625" y="0.84375" width="52" height="52" rx="26" fill="white" fill-opacity="0.1"/>
<path d="M18.2656 17.3438C17.5363 17.3438 16.8368 17.6335 16.3211 18.1492C15.8054 18.6649 15.5156 19.3644 15.5156 20.0938V30.5938C15.5156 30.9549 15.5868 31.3125 15.725 31.6461C15.8632 31.9798 16.0657 32.2829 16.3211 32.5383C16.5764 32.7937 16.8796 32.9962 17.2132 33.1344C17.5469 33.2726 17.9045 33.3438 18.2656 33.3438H25.2686C24.9684 32.8855 24.7517 32.3776 24.6286 31.8438H18.2656C17.5756 31.8438 17.0156 31.2837 17.0156 30.5938V20.0938C17.0156 19.4037 17.5756 18.8438 18.2656 18.8438H32.7656C33.4556 18.8438 34.0156 19.4037 34.0156 20.0938V23.8438C34.9606 24.5118 35.5156 24.8438 35.5156 25.8438V20.0938C35.5156 19.3644 35.2259 18.6649 34.7102 18.1492C34.1944 17.6335 33.495 17.3438 32.7656 17.3438H18.2656Z" fill="white"/>
<path d="M30.0366 33.3438C29.4196 32.9937 28.9456 32.4747 28.7006 31.8438C28.5773 31.5248 28.5146 31.1857 28.5156 30.8438C28.5156 30.7111 28.4629 30.584 28.3692 30.4902C28.2754 30.3964 28.1482 30.3438 28.0156 30.3438C27.883 30.3438 27.7558 30.3964 27.6621 30.4902C27.5683 30.584 27.5156 30.7111 27.5156 30.8438C27.5156 31.1868 27.5676 31.5227 27.6646 31.8438C27.8306 32.3958 28.1316 32.9067 28.5346 33.3438C29.2596 34.1327 30.3166 34.6838 31.5156 34.8167V35.8438C31.5156 35.9764 31.5683 36.1035 31.6621 36.1973C31.7558 36.2911 31.883 36.3438 32.0156 36.3438C32.1482 36.3438 32.2754 36.2911 32.3692 36.1973C32.4629 36.1035 32.5156 35.9764 32.5156 35.8438V34.8167C34.7656 34.5667 36.5156 32.8438 36.5156 30.8438C36.5156 30.7111 36.4629 30.584 36.3692 30.4902C36.2754 30.3964 36.1482 30.3438 36.0156 30.3438C35.883 30.3438 35.7558 30.3964 35.6621 30.4902C35.5683 30.584 35.5156 30.7111 35.5156 30.8438C35.5156 32.5938 33.9486 33.8438 32.0156 33.8438C31.2816 33.8438 30.5996 33.6637 30.0366 33.3438Z" fill="white"/>
<path d="M32.0156 32.8438C31.6277 32.8469 31.2445 32.7579 30.8977 32.5841C30.5508 32.4102 30.2502 32.1565 30.0206 31.8438C29.6966 31.4104 29.5196 30.8848 29.5156 30.3438V27.8438C29.5156 26.5898 30.5156 25.3438 32.0156 25.3438C32.8806 25.3438 33.5786 25.7607 34.0156 26.3527C34.3356 26.7867 34.5156 27.3158 34.5156 27.8438V30.3438C34.5156 31.5898 33.5156 32.8438 32.0156 32.8438ZM20.2656 21.3438C20.0667 21.3438 19.8759 21.4228 19.7353 21.5634C19.5946 21.7041 19.5156 21.8948 19.5156 22.0938C19.5156 22.2927 19.5946 22.4834 19.7353 22.6241C19.8759 22.7647 20.0667 22.8438 20.2656 22.8438H24.7656C24.9645 22.8438 25.1553 22.7647 25.296 22.6241C25.4366 22.4834 25.5156 22.2927 25.5156 22.0938C25.5156 21.8948 25.4366 21.7041 25.296 21.5634C25.1553 21.4228 24.9645 21.3438 24.7656 21.3438H20.2656ZM19.5156 25.0938C19.5156 24.8948 19.5946 24.7041 19.7353 24.5634C19.8759 24.4228 20.0667 24.3438 20.2656 24.3438H26.7656C26.9645 24.3438 27.1553 24.4228 27.296 24.5634C27.4366 24.7041 27.5156 24.8948 27.5156 25.0938C27.5156 25.2927 27.4366 25.4834 27.296 25.6241C27.1553 25.7647 26.9645 25.8438 26.7656 25.8438H20.2656C20.0667 25.8438 19.8759 25.7647 19.7353 25.6241C19.5946 25.4834 19.5156 25.2927 19.5156 25.0938ZM19.5156 28.0938C19.5156 27.8948 19.5946 27.7041 19.7353 27.5634C19.8759 27.4228 20.0667 27.3438 20.2656 27.3438H25.7656C25.9645 27.3438 26.1553 27.4228 26.296 27.5634C26.4366 27.7041 26.5156 27.8948 26.5156 28.0938C26.5156 28.2927 26.4366 28.4834 26.296 28.6241C26.1553 28.7647 25.9645 28.8438 25.7656 28.8438H20.2656C20.0667 28.8438 19.8759 28.7647 19.7353 28.6241C19.5946 28.4834 19.5156 28.2927 19.5156 28.0938Z" fill="white"/>
</svg>
