<svg width="53" height="53" viewBox="0 0 53 53" fill="none" xmlns="http://www.w3.org/2000/svg">
<mask id="mask0_612_13086" style="mask-type:luminance" maskUnits="userSpaceOnUse" x="0" y="0" width="53" height="53">
<path d="M0.0297852 0.939819H52.0357V52.9398H0.0297852V0.939819Z" fill="white"/>
</mask>
<g mask="url(#mask0_612_13086)">
<path d="M0.0297852 26.9398C0.0297852 19.7601 2.56848 13.6318 7.64588 8.55505C12.7233 3.47822 18.8522 0.939819 26.0328 0.939819C33.2133 0.939819 39.3422 3.47822 44.4197 8.55505C49.497 13.6318 52.0357 19.7601 52.0357 26.9398C52.0357 34.1195 49.497 40.2477 44.4197 45.3246C39.3422 50.4014 33.2133 52.9398 26.0328 52.9398C18.8522 52.9398 12.7233 50.4014 7.64588 45.3246C2.56848 40.2477 0.0297852 34.1195 0.0297852 26.9398ZM24.4076 4.44007C22.2298 5.10307 20.0683 7.10507 18.2741 10.4688C17.8093 11.3398 17.377 12.2888 16.9902 13.3028C19.2817 13.8131 21.7748 14.1381 24.4076 14.2356V4.44007ZM13.8406 12.4416C14.3022 11.1936 14.8287 10.0236 15.404 8.93807C15.685 8.40678 15.9875 7.88802 16.3115 7.38177C16.6355 6.87553 16.9798 6.38355 17.3445 5.90582C15.9609 6.47912 14.6467 7.18199 13.4017 8.01442C12.1567 8.84685 11.0051 9.79282 9.94667 10.8523C11.1233 11.4503 12.4267 11.9866 13.8406 12.4416ZM11.4353 25.3148C11.5524 21.8373 12.0464 18.5321 12.8525 15.5388C11.9728 15.2575 11.1081 14.9358 10.2584 14.5737C9.4088 14.2117 8.57787 13.8108 7.76567 13.3711C6.47128 15.1088 5.44757 16.9935 4.69452 19.0251C3.94146 21.0568 3.48952 23.1534 3.33866 25.3148H11.4353ZM15.9859 16.4066C15.6027 17.8622 15.3025 19.3347 15.0851 20.8241C14.8677 22.3135 14.7346 23.8105 14.6857 25.3148H24.4076V17.4856C21.4497 17.3881 18.6122 17.0143 15.9859 16.4066ZM27.6579 17.4823V25.3148H37.3766C37.3282 23.8105 37.1956 22.3136 36.9789 20.8242C36.762 19.3348 36.4623 17.8622 36.0797 16.4066C33.4534 17.0143 30.6158 17.3848 27.6579 17.4823ZM14.689 28.5648C14.8027 31.7726 15.261 34.7853 15.9859 37.4731C17.369 37.1591 18.764 36.9126 20.1708 36.7327C21.5777 36.5531 22.99 36.4413 24.4076 36.3973V28.5648H14.689ZM27.6579 28.5648V36.3941C30.6158 36.4916 33.4534 36.8653 36.0797 37.4731C36.8045 34.7853 37.2628 31.7726 37.3798 28.5648H27.6579ZM16.9902 40.5768C17.3803 41.5908 17.8093 42.5398 18.2741 43.4108C20.0683 46.7746 22.2331 48.7733 24.4076 49.4396V39.6473C21.7748 39.7448 19.2817 40.0698 16.9902 40.5768ZM17.3478 47.9738C16.9825 47.4961 16.6376 47.0042 16.3131 46.4979C15.9885 45.9918 15.6855 45.4728 15.404 44.9416C15.1047 44.3752 14.8246 43.7993 14.5638 43.2143C14.3029 42.6291 14.0619 42.0361 13.8406 41.4348C13.1721 41.6498 12.5128 41.89 11.8628 42.1559C11.2129 42.4215 10.5742 42.7121 9.94667 43.0273C11.0051 44.0868 12.1567 45.0328 13.4017 45.8652C14.6467 46.6977 15.9642 47.4005 17.3478 47.9738ZM12.8525 38.3408C12.4306 36.7438 12.1008 35.1281 11.8633 33.4933C11.6258 31.8588 11.4821 30.2158 11.4321 28.5648H3.33866C3.48942 30.7263 3.94133 32.823 4.69439 34.8547C5.44744 36.8863 6.4712 38.7709 7.76567 40.5086C9.29334 39.6701 10.9998 38.9421 12.8525 38.3408ZM34.721 47.9738C36.1039 47.401 37.4175 46.6985 38.662 45.8665C39.9064 45.0347 41.0575 44.0894 42.1156 43.0306C41.4887 42.7153 40.8505 42.425 40.2011 42.1591C39.5517 41.8933 38.893 41.653 38.2249 41.4381C38.0037 42.0387 37.7625 42.6313 37.5016 43.2158C37.2407 43.8004 36.9607 44.3756 36.6615 44.9416C36.3806 45.4728 36.0781 45.9918 35.7542 46.4979C35.4302 47.0042 35.0857 47.4961 34.721 47.9738ZM27.6579 39.6441V49.4396C29.8357 48.7766 31.9972 46.7746 33.7914 43.4108C34.2562 42.5398 34.6885 41.5908 35.0753 40.5768C33.8558 40.3095 32.6267 40.0982 31.3879 39.9429C30.149 39.7877 28.9057 39.6859 27.6579 39.6441ZM39.213 38.3408C41.0657 38.9421 42.7722 39.6701 44.2998 40.5086C45.5944 38.7709 46.618 36.8863 47.3712 34.8547C48.1242 32.823 48.576 30.7263 48.7268 28.5648H40.6334C40.5834 30.2158 40.4397 31.8588 40.2022 33.4933C39.9647 35.1281 39.6349 36.7438 39.213 38.3408ZM48.7268 25.3148C48.576 23.1534 48.1242 21.0568 47.3712 19.0251C46.618 16.9934 45.5944 15.1087 44.2998 13.3711C42.7722 14.2096 41.0657 14.9376 39.213 15.5388C40.0191 18.5288 40.5132 21.8373 40.6334 25.3148H48.7268ZM36.6615 8.93807C37.2368 10.0236 37.7633 11.1936 38.2281 12.4416C38.8956 12.2267 39.5539 11.9863 40.2026 11.7205C40.8516 11.4547 41.4891 11.1642 42.1156 10.8491C41.0575 9.79091 39.906 8.84616 38.6618 8.01483C37.4173 7.1835 36.1037 6.48159 34.721 5.90907C35.4296 6.82882 36.0797 7.84932 36.6615 8.93807ZM35.0753 13.3028C34.8907 12.8177 34.6913 12.3388 34.477 11.866C34.2629 11.3932 34.0343 10.9275 33.7914 10.4688C31.9972 7.10507 29.8357 5.10632 27.6579 4.44007V14.2323C30.2907 14.1348 32.7838 13.8098 35.0753 13.3028Z" fill="white" fill-opacity="0.2"/>
</g>
</svg>
