<svg width="52" height="53" viewBox="0 0 52 53" fill="none" xmlns="http://www.w3.org/2000/svg">
<mask id="mask0_612_13060" style="mask-type:luminance" maskUnits="userSpaceOnUse" x="0" y="0" width="53" height="53">
<path d="M0 0.939819H52.0059V52.9398H0V0.939819Z" fill="white"/>
</mask>
<g mask="url(#mask0_612_13060)">
<path fill-rule="evenodd" clip-rule="evenodd" d="M1.8508 10.8402C1.8508 8.61735 2.6368 6.71998 4.20881 5.14815C5.78082 3.57632 7.67841 2.79041 9.90156 2.79041H15.9396C18.1628 2.79041 20.0604 3.57632 21.6324 5.14815C23.2044 6.71998 23.9904 8.61735 23.9904 10.8402V16.8776C23.9904 19.1005 23.2044 20.9979 21.6324 22.5697C20.0604 24.1416 18.1628 24.9275 15.9396 24.9275H9.90156C7.67841 24.9275 5.78082 24.1416 4.20881 22.5697C2.6368 20.9979 1.8508 19.1005 1.8508 16.8776V10.8402ZM28.0158 10.8402C28.0158 8.61735 28.8018 6.71998 30.3738 5.14815C31.9459 3.57632 33.8435 2.79041 36.0665 2.79041H42.1046C44.3277 2.79041 46.2253 3.57632 47.7973 5.14815C49.3694 6.71998 50.1554 8.61735 50.1554 10.8402V16.8776C50.1554 19.1005 49.3694 20.9979 47.7973 22.5697C46.2253 24.1416 44.3277 24.9275 42.1046 24.9275H36.0665C33.8435 24.9275 31.9459 24.1416 30.3738 22.5697C28.8018 20.9979 28.0158 19.1005 28.0158 16.8776V10.8402ZM5.87618 10.8402V16.8776C5.87618 17.9891 6.26918 18.9378 7.05519 19.7237C7.84119 20.5096 8.78998 20.9026 9.90156 20.9026H15.9396C17.0512 20.9026 18 20.5096 18.786 19.7237C19.572 18.9378 19.965 17.9891 19.965 16.8776V10.8402C19.965 9.7288 19.572 8.78011 18.786 7.9942C18 7.20828 17.0512 6.81533 15.9396 6.81533H9.90156C8.78998 6.81533 7.84119 7.20828 7.05519 7.9942C6.26918 8.78011 5.87618 9.7288 5.87618 10.8402ZM32.0412 10.8402V16.8776C32.0412 17.9891 32.4341 18.9378 33.2201 19.7237C34.0062 20.5096 34.955 20.9026 36.0665 20.9026H42.1046C43.2162 20.9026 44.165 20.5096 44.9511 19.7237C45.737 18.9378 46.13 17.9891 46.13 16.8776V10.8402C46.13 9.7288 45.737 8.78011 44.9511 7.9942C44.165 7.20828 43.2162 6.81533 42.1046 6.81533H36.0665C34.955 6.81533 34.0062 7.20828 33.2201 7.9942C32.4341 8.78011 32.0412 9.7288 32.0412 10.8402ZM1.8508 37.0022C1.8508 34.7794 2.6368 32.882 4.20881 31.3101C5.78082 29.7383 7.67841 28.9524 9.90156 28.9524H15.9396C18.1628 28.9524 20.0604 29.7383 21.6324 31.3101C23.2044 32.882 23.9904 34.7794 23.9904 37.0022V43.0396C23.9904 45.2625 23.2044 47.1598 21.6324 48.7317C20.0604 50.3035 18.1628 51.0895 15.9396 51.0895H9.90156C7.67841 51.0895 5.78082 50.3035 4.20881 48.7317C2.6368 47.1598 1.8508 45.2625 1.8508 43.0396V37.0022ZM28.0158 37.0022C28.0158 34.7794 28.8018 32.882 30.3738 31.3101C31.9459 29.7383 33.8435 28.9524 36.0665 28.9524H42.1046C44.3277 28.9524 46.2253 29.7383 47.7973 31.3101C49.3694 32.882 50.1554 34.7794 50.1554 37.0022V43.0396C50.1554 45.2625 49.3694 47.1598 47.7973 48.7317C46.2253 50.3035 44.3277 51.0895 42.1046 51.0895H36.0665C33.8435 51.0895 31.9459 50.3035 30.3738 48.7317C28.8018 47.1598 28.0158 45.2625 28.0158 43.0396V37.0022ZM5.87618 37.0022V43.0396C5.87618 44.151 6.26918 45.0998 7.05519 45.8858C7.84119 46.6716 8.78998 47.0645 9.90156 47.0645H15.9396C17.0512 47.0645 18 46.6716 18.786 45.8858C19.572 45.0998 19.965 44.151 19.965 43.0396V37.0022C19.965 35.8908 19.572 34.9421 18.786 34.1561C18 33.3702 17.0512 32.9773 15.9396 32.9773H9.90156C8.78998 32.9773 7.84119 33.3702 7.05519 34.1561C6.26918 34.9421 5.87618 35.8908 5.87618 37.0022ZM32.0412 37.0022V43.0396C32.0412 44.151 32.4341 45.0998 33.2201 45.8858C34.0062 46.6716 34.955 47.0645 36.0665 47.0645H42.1046C43.2162 47.0645 44.165 46.6716 44.9511 45.8858C45.737 45.0998 46.13 44.151 46.13 43.0396V37.0022C46.13 35.8908 45.737 34.9421 44.9511 34.1561C44.165 33.3702 43.2162 32.9773 42.1046 32.9773H36.0665C34.955 32.9773 34.0062 33.3702 33.2201 34.1561C32.4341 34.9421 32.0412 35.8908 32.0412 37.0022Z" fill="white" fill-opacity="0.2"/>
</g>
</svg>
