<svg width="53" height="53" viewBox="0 0 53 53" fill="none" xmlns="http://www.w3.org/2000/svg">
<rect x="0.015625" y="0.84375" width="52" height="52" rx="26" fill="white" fill-opacity="0.1"/>
<path d="M26.5546 31.1032L27.0026 32.4802C27.04 32.5864 27.1095 32.6783 27.2013 32.7433C27.2932 32.8083 27.403 32.8432 27.5156 32.8432C27.6281 32.8432 27.7379 32.8083 27.8298 32.7433C27.9217 32.6783 27.9911 32.5864 28.0286 32.4802L28.4766 31.1032C28.616 30.6847 28.8511 30.3044 29.1632 29.9927C29.4753 29.6809 29.8559 29.4462 30.2746 29.3072L31.6526 28.8592C31.7579 28.8211 31.849 28.7515 31.9133 28.6598C31.9777 28.5681 32.0122 28.4588 32.0122 28.3467C32.0122 28.2347 31.9777 28.1254 31.9133 28.0337C31.849 27.942 31.7579 27.8723 31.6526 27.8342L31.6246 27.8272L30.2466 27.3792C29.828 27.2401 29.4476 27.0053 29.1355 26.6936C28.8234 26.3818 28.5882 26.0017 28.4486 25.5832L28.0016 24.2062C27.9643 24.0998 27.8949 24.0075 27.8029 23.9422C27.7109 23.8769 27.6009 23.8418 27.4881 23.8418C27.3753 23.8418 27.2652 23.8769 27.1732 23.9422C27.0812 24.0075 27.0118 24.0998 26.9746 24.2062L26.5266 25.5832L26.5156 25.6172C26.3757 26.0254 26.1446 26.3962 25.8398 26.7016C25.5349 27.0069 25.1645 27.2387 24.7566 27.3792L23.3786 27.8272C23.2732 27.8653 23.1822 27.935 23.1178 28.0267C22.9149 28.3159 23.0463 28.7321 23.3786 28.8522C24.7028 29.2827 26.0663 29.627 26.5546 31.1032ZM28.0156 20.8432V21.9362C27.7651 21.8452 27.4952 21.8206 27.2324 21.8647C26.9695 21.9089 26.7226 22.0203 26.5156 22.1882V20.8432C26.5156 20.1802 26.2522 19.5443 25.7833 19.0755C25.3145 18.6066 24.6786 18.3432 24.0156 18.3432C23.3525 18.3432 22.7166 18.6066 22.2478 19.0755C21.779 19.5443 21.5156 20.1802 21.5156 20.8432V26.8432C21.5156 28.8186 21.5156 28.6598 20.4391 28.6351C20.1605 28.0788 20.0155 27.4653 20.0156 26.8432V20.8442C20.0156 19.7834 20.437 18.766 21.1871 18.0158C21.9373 17.2657 22.9547 16.8442 24.0156 16.8442C25.0764 16.8442 26.0938 17.2657 26.844 18.0158C27.5941 18.766 28.0156 19.7824 28.0156 20.8432ZM24.2656 32.3432C24.8096 32.3432 24.7956 32.3023 25.2896 32.1483L25.5156 32.8433L25.5196 32.8553C25.6086 33.1073 25.7616 33.3313 25.9616 33.5053C25.4018 33.702 25.3583 33.7817 24.7666 33.8252L24.7656 36.0932C24.7655 36.2833 24.6933 36.4662 24.5636 36.605C24.4339 36.7439 24.2563 36.8283 24.0667 36.8413C23.8771 36.8542 23.6897 36.7947 23.5423 36.6748C23.3949 36.5549 23.2985 36.3835 23.2726 36.1952L23.2656 36.0932V33.8252C21.6071 33.7021 20.0524 32.971 18.8998 31.7722C17.7471 30.5734 17.0776 28.9913 17.0196 27.3292L17.0156 27.0932V26.5932C17.0156 26.4032 17.0878 26.2203 17.2175 26.0814C17.3473 25.9426 17.5249 25.8582 17.7144 25.8452C17.904 25.8323 18.0915 25.8918 18.2389 26.0117C18.3863 26.1316 18.4827 26.303 18.5086 26.4912L18.5156 26.5932V27.0932C18.5154 28.4483 19.0393 29.7509 19.9775 30.7287C20.9157 31.7064 22.1956 32.2835 23.5496 32.3392L23.7656 32.3432H24.2656ZM34.0326 33.8082L34.7986 34.0562L34.8136 34.0602C34.8577 34.0758 34.8976 34.1014 34.9301 34.1349C34.9627 34.1685 34.9871 34.2092 35.0013 34.2537C35.0156 34.2983 35.0193 34.3455 35.0122 34.3918C35.0051 34.438 34.9875 34.482 34.9606 34.5202C34.9242 34.5713 34.8728 34.6097 34.8136 34.6302L34.0486 34.8782C33.8158 34.9554 33.6042 35.0858 33.4306 35.2591C33.2571 35.4323 33.1262 35.6436 33.0486 35.8762L32.8006 36.6412C32.7799 36.7003 32.7413 36.7515 32.6903 36.7877C32.6392 36.8239 32.5782 36.8433 32.5156 36.8433C32.453 36.8433 32.3919 36.8239 32.3409 36.7877C32.2898 36.7515 32.2513 36.7003 32.2306 36.6412L31.9816 35.8772C31.9047 35.6439 31.7744 35.4317 31.6009 35.2577C31.4275 35.0838 31.2157 34.9528 30.9826 34.8752L30.2176 34.6262C30.1735 34.6107 30.1336 34.5851 30.101 34.5515C30.0684 34.518 30.044 34.4773 30.0298 34.4328C30.0156 34.3882 30.0118 34.341 30.0189 34.2947C30.026 34.2485 30.0437 34.2045 30.0706 34.1662C30.107 34.1152 30.1583 34.0768 30.2176 34.0562L30.9826 33.8082C31.2124 33.729 31.4208 33.5977 31.5915 33.4246C31.7622 33.2514 31.8906 33.0412 31.9666 32.8102L32.2156 32.0452C32.2363 31.9862 32.2748 31.935 32.3259 31.8988C32.3769 31.8626 32.438 31.8431 32.5006 31.8431C32.5632 31.8431 32.6242 31.8626 32.6753 31.8988C32.7263 31.935 32.7649 31.9862 32.7856 32.0452L33.0346 32.8092C33.1117 33.0419 33.2421 33.2534 33.4153 33.4269C33.5886 33.6003 33.7999 33.7309 34.0326 33.8082Z" fill="white"/>
</svg>
