<svg width="53" height="53" viewBox="0 0 53 53" fill="none" xmlns="http://www.w3.org/2000/svg">
<mask id="mask0_612_13077" style="mask-type:luminance" maskUnits="userSpaceOnUse" x="0" y="0" width="53" height="53">
<path d="M0.353149 0.939819H52.3591V52.9398H0.353149V0.939819Z" fill="white"/>
</mask>
<g mask="url(#mask0_612_13077)">
<path d="M26.3561 49.6898C20.0732 49.6898 14.7103 47.4688 10.2676 43.0265C5.82489 38.5844 3.60352 33.2221 3.60352 26.9398C3.60352 20.6576 5.82489 15.2954 10.2676 10.8531C14.7103 6.41093 20.0732 4.18982 26.3561 4.18982C32.6391 4.18982 38.002 6.41093 42.4446 10.8531C46.8874 15.2954 49.1087 20.6576 49.1087 26.9398C49.1087 33.2221 46.8874 38.5844 42.4446 43.0265C38.002 47.4688 32.6391 49.6898 26.3561 49.6898ZM26.3561 52.9398C33.5366 52.9398 39.6655 50.4014 44.743 45.3246C49.8203 40.2477 52.3591 34.1195 52.3591 26.9398C52.3591 19.7601 49.8203 13.6318 44.743 8.55505C39.6655 3.47822 33.5366 0.939819 26.3561 0.939819C19.1756 0.939819 13.0466 3.47822 7.96925 8.55505C2.89184 13.6318 0.353149 19.7601 0.353149 26.9398C0.353149 34.1195 2.89184 40.2477 7.96925 45.3246C13.0466 50.4014 19.1756 52.9398 26.3561 52.9398Z" fill="white" fill-opacity="0.2"/>
<path d="M14.2811 32.0324C14.6698 31.8081 15.0808 31.754 15.5143 31.8701C15.9478 31.9863 16.2767 32.2386 16.5011 32.6272C17.517 34.3879 18.9053 35.7763 20.6659 36.7924C22.4266 37.8085 24.3234 38.3159 26.3562 38.3147C28.3891 38.3159 30.2859 37.8085 32.0466 36.7924C33.8072 35.7763 35.1954 34.3879 36.2113 32.6272C36.4343 32.2353 36.7632 31.9803 37.1983 31.8621C37.6334 31.744 38.0462 31.7977 38.4367 32.0231C38.8272 32.2485 39.0801 32.5792 39.1953 33.015C39.3106 33.4509 39.2543 33.8633 39.0261 34.2522C37.7201 36.5156 35.9352 38.3005 33.6717 39.6069C31.4082 40.9132 28.9698 41.5658 26.3562 41.5647C23.7428 41.5658 21.3043 40.9132 19.0408 39.6069C16.7773 38.3005 14.9925 36.5156 13.6863 34.2522C13.4619 33.8636 13.4078 33.4526 13.524 33.0191C13.6401 32.5857 13.8925 32.2568 14.2811 32.0324ZM23.1059 22.0647C23.1059 24.7557 21.6497 26.9397 19.8555 26.9397C18.0613 26.9397 16.6051 24.7557 16.6051 22.0647C16.6051 19.3737 18.0613 17.1897 19.8555 17.1897C21.6497 17.1897 23.1059 19.3737 23.1059 22.0647ZM36.1073 22.0647C36.1073 24.7557 34.6512 26.9397 32.857 26.9397C31.0628 26.9397 29.6066 24.7557 29.6066 22.0647C29.6066 19.3737 31.0628 17.1897 32.857 17.1897C34.6512 17.1897 36.1073 19.3737 36.1073 22.0647Z" fill="white" fill-opacity="0.2"/>
</g>
</svg>
