<svg width="120" height="121" viewBox="0 0 120 121" fill="none" xmlns="http://www.w3.org/2000/svg">
<path fill-rule="evenodd" clip-rule="evenodd" d="M38.7096 108.189C39.7801 108.189 40.6493 109.058 40.6493 110.129C40.6493 111.199 39.7801 112.068 38.7096 112.068C37.6392 112.068 36.77 111.199 36.77 110.129C36.77 109.058 37.6392 108.189 38.7096 108.189ZM43.6636 108.189C44.7341 108.189 45.6032 109.058 45.6032 110.129C45.6032 111.199 44.734 112.068 43.6636 112.068C42.5932 112.068 41.724 111.199 41.724 110.129C41.724 109.058 42.5932 108.189 43.6636 108.189ZM48.8316 103.021C49.9064 103.021 50.7713 103.89 50.7713 104.961C50.7713 106.031 49.9063 106.9 48.8316 106.9C47.7612 106.9 46.8963 106.031 46.8963 104.961C46.8963 103.89 47.7612 103.021 48.8316 103.021ZM38.7095 103.021C39.78 103.021 40.6491 103.89 40.6491 104.961C40.6491 106.031 39.7799 106.9 38.7095 106.9C37.6391 106.9 36.7699 106.031 36.7699 104.961C36.7699 103.89 37.6391 103.021 38.7095 103.021ZM43.7106 102.97C44.7896 102.97 45.6631 103.848 45.6631 104.927C45.6631 106.006 44.7896 106.879 43.7106 106.879C42.6317 106.879 41.7538 106.006 41.7538 104.927C41.7538 103.848 42.6316 102.97 43.7106 102.97ZM48.6861 97.7674C49.7651 97.7674 50.6429 98.6452 50.6429 99.7242C50.6429 100.803 49.7651 101.677 48.6861 101.677C47.607 101.677 46.7293 100.803 46.7293 99.7242C46.7293 98.6453 47.607 97.7674 48.6861 97.7674ZM43.7106 97.7674C44.7896 97.7674 45.6631 98.6452 45.6631 99.7242C45.6631 100.803 44.7896 101.677 43.7106 101.677C42.6317 101.677 41.7538 100.803 41.7538 99.7242C41.7538 98.6453 42.6316 97.7674 43.7106 97.7674ZM38.7352 97.7674C39.8099 97.7674 40.6876 98.6452 40.6876 99.7242C40.6876 100.803 39.8099 101.677 38.7352 101.677C37.6519 101.677 36.7784 100.803 36.7784 99.7242C36.7784 98.6453 37.6518 97.7674 38.7352 97.7674ZM33.7555 97.6347C34.8259 97.6347 35.6951 98.5039 35.6951 99.5743C35.6951 100.645 34.8259 101.514 33.7555 101.514C32.6851 101.514 31.8159 100.645 31.8159 99.5743C31.8159 98.5038 32.6851 97.6347 33.7555 97.6347ZM33.7555 92.6807C34.8259 92.6807 35.6951 93.5499 35.6951 94.6203C35.6951 95.6908 34.8259 96.5599 33.7555 96.5599C32.6851 96.5599 31.8159 95.6907 31.8159 94.6203C31.8159 93.5499 32.6851 92.6807 33.7555 92.6807ZM48.6859 92.5651C49.7649 92.5651 50.6427 93.4429 50.6427 94.5219C50.6427 95.6009 49.7649 96.4743 48.6859 96.4743C47.6068 96.4743 46.7291 95.6009 46.7291 94.5219C46.7291 93.4429 47.6068 92.5651 48.6859 92.5651ZM43.7104 92.5651C44.7894 92.5651 45.6628 93.4429 45.6628 94.5219C45.6628 95.6009 44.7894 96.4743 43.7104 96.4743C42.6315 96.4743 41.7536 95.6009 41.7536 94.5219C41.7536 93.4429 42.6314 92.5651 43.7104 92.5651ZM38.735 92.5651C39.8097 92.5651 40.6874 93.4429 40.6874 94.5219C40.6874 95.6009 39.8096 96.4743 38.735 96.4743C37.6517 96.4743 36.7782 95.6009 36.7782 94.5219C36.7782 93.4429 37.6516 92.5651 38.735 92.5651ZM38.735 87.3456C39.8097 87.3456 40.6874 88.2191 40.6874 89.2981C40.6874 90.3771 39.8096 91.2549 38.735 91.2549C37.6517 91.2549 36.7782 90.3771 36.7782 89.2981C36.7782 88.2191 37.6516 87.3456 38.735 87.3456ZM43.7104 87.3456C44.7894 87.3456 45.6628 88.2191 45.6628 89.2981C45.6628 90.3771 44.7894 91.2549 43.7104 91.2549C42.6315 91.2549 41.7536 90.3771 41.7536 89.2981C41.7536 88.2191 42.6314 87.3456 43.7104 87.3456ZM33.7554 87.3456C34.8344 87.3456 35.7122 88.2191 35.7122 89.2981C35.7122 90.3771 34.8344 91.2549 33.7554 91.2549C32.6763 91.2549 31.8029 90.3771 31.8029 89.2981C31.8029 88.2191 32.6764 87.3456 33.7554 87.3456ZM48.6858 87.3456C49.7648 87.3456 50.6426 88.2191 50.6426 89.2981C50.6426 90.3771 49.7648 91.2549 48.6858 91.2549C47.6067 91.2549 46.7289 90.3771 46.7289 89.2981C46.7289 88.2191 47.6067 87.3456 48.6858 87.3456ZM38.735 82.1433C39.8097 82.1433 40.6874 83.0168 40.6874 84.0957C40.6874 85.1747 39.8096 86.0525 38.735 86.0525C37.6517 86.0525 36.7782 85.1748 36.7782 84.0957C36.7782 83.0167 37.6516 82.1433 38.735 82.1433ZM53.661 82.1433C54.74 82.1433 55.6178 83.0168 55.6178 84.0957C55.6178 85.1747 54.74 86.0525 53.661 86.0525C52.5819 86.0525 51.7086 85.1748 51.7086 84.0957C51.7086 83.0167 52.582 82.1433 53.661 82.1433ZM48.6855 82.1433C49.7645 82.1433 50.6423 83.0168 50.6423 84.0957C50.6423 85.1747 49.7646 86.0525 48.6855 86.0525C47.6065 86.0525 46.7287 85.1748 46.7287 84.0957C46.7287 83.0167 47.6065 82.1433 48.6855 82.1433ZM33.7551 82.1433C34.8341 82.1433 35.7119 83.0168 35.7119 84.0957C35.7119 85.1747 34.8342 86.0525 33.7551 86.0525C32.6761 86.0525 31.8027 85.1748 31.8027 84.0957C31.8027 83.0167 32.6762 82.1433 33.7551 82.1433ZM43.7102 82.1433C44.7892 82.1433 45.6626 83.0168 45.6626 84.0957C45.6626 85.1747 44.7891 86.0525 43.7102 86.0525C42.6313 86.0525 41.7534 85.1748 41.7534 84.0957C41.7534 83.0167 42.6311 82.1433 43.7102 82.1433ZM28.8006 82.1262C29.8711 82.1262 30.7402 82.9954 30.7402 84.0658C30.7402 85.1362 29.871 86.0054 28.8006 86.0054C27.7302 86.0054 26.861 85.1362 26.861 84.0658C26.861 82.9954 27.7302 82.1262 28.8006 82.1262ZM58.6362 76.9409C59.7152 76.9409 60.593 77.8144 60.593 78.8934C60.593 79.9723 59.7153 80.8502 58.6362 80.8502C57.5572 80.8502 56.6838 79.9724 56.6838 78.8934C56.6838 77.8143 57.5573 76.9409 58.6362 76.9409ZM53.6608 76.9409C54.7398 76.9409 55.6176 77.8144 55.6176 78.8934C55.6176 79.9723 54.7398 80.8502 53.6608 80.8502C52.5817 80.8502 51.7083 79.9724 51.7083 78.8934C51.7083 77.8143 52.5818 76.9409 53.6608 76.9409ZM33.755 76.9409C34.834 76.9409 35.7118 77.8144 35.7118 78.8934C35.7118 79.9723 34.8341 80.8502 33.755 80.8502C32.676 80.8502 31.8026 79.9724 31.8026 78.8934C31.8026 77.8143 32.6761 76.9409 33.755 76.9409ZM38.7347 76.9409C39.8095 76.9409 40.6872 77.8144 40.6872 78.8934C40.6872 79.9723 39.8094 80.8502 38.7347 80.8502C37.6515 80.8502 36.7779 79.9724 36.7779 78.8934C36.7779 77.8143 37.6514 76.9409 38.7347 76.9409ZM48.6855 76.9409C49.7645 76.9409 50.6423 77.8144 50.6423 78.8934C50.6423 79.9723 49.7646 80.8502 48.6855 80.8502C47.6065 80.8502 46.7287 79.9724 46.7287 78.8934C46.7287 77.8143 47.6065 76.9409 48.6855 76.9409ZM43.7101 76.9409C44.7891 76.9409 45.6625 77.8144 45.6625 78.8934C45.6625 79.9723 44.789 80.8502 43.7101 80.8502C42.6311 80.8502 41.7533 79.9724 41.7533 78.8934C41.7533 77.8143 42.631 76.9409 43.7101 76.9409ZM28.8005 76.9581C29.8709 76.9581 30.7401 77.8273 30.7401 78.8934C30.7401 79.9638 29.8709 80.833 28.8005 80.833C27.7301 80.833 26.8609 79.9638 26.8609 78.8934C26.8609 77.8272 27.7301 76.9581 28.8005 76.9581ZM28.8005 71.7856C29.8709 71.7856 30.7401 72.6548 30.7401 73.7252C30.7401 74.7957 29.8709 75.6648 28.8005 75.6648C27.7301 75.6648 26.8609 74.7956 26.8609 73.7252C26.8609 72.6548 27.7301 71.7856 28.8005 71.7856ZM48.6854 71.7342C49.7644 71.7342 50.6422 72.612 50.6422 73.6911C50.6422 74.7701 49.7645 75.6479 48.6854 75.6479C47.6064 75.6479 46.7286 74.7701 46.7286 73.6911C46.7286 72.612 47.6064 71.7342 48.6854 71.7342ZM33.755 71.7342C34.834 71.7342 35.7118 72.612 35.7118 73.6911C35.7118 74.7701 34.8341 75.6479 33.755 75.6479C32.676 75.6479 31.8026 74.7701 31.8026 73.6911C31.8026 72.612 32.6761 71.7342 33.755 71.7342ZM58.6361 71.7342C59.7151 71.7342 60.5929 72.612 60.5929 73.6911C60.5929 74.7701 59.7152 75.6479 58.6361 75.6479C57.5571 75.6479 56.6837 74.7701 56.6837 73.6911C56.6837 72.612 57.5572 71.7342 58.6361 71.7342ZM38.7347 71.7342C39.8095 71.7342 40.6872 72.612 40.6872 73.6911C40.6872 74.7701 39.8094 75.6479 38.7347 75.6479C37.6515 75.6479 36.7779 74.7701 36.7779 73.6911C36.7779 72.612 37.6514 71.7342 38.7347 71.7342ZM43.7102 71.7342C44.7892 71.7342 45.6626 72.612 45.6626 73.6911C45.6626 74.7701 44.7891 75.6479 43.7102 75.6479C42.6313 75.6479 41.7534 74.7701 41.7534 73.6911C41.7534 72.612 42.6311 71.7342 43.7102 71.7342ZM63.6159 71.7342C64.695 71.7342 65.5684 72.612 65.5684 73.6911C65.5684 74.7701 64.6949 75.6479 63.6159 75.6479C62.5369 75.6479 61.6591 74.7701 61.6591 73.6911C61.6591 72.612 62.5369 71.7342 63.6159 71.7342ZM53.6609 71.7342C54.7399 71.7342 55.6177 72.612 55.6177 73.6911C55.6177 74.7701 54.7399 75.6479 53.6609 75.6479C52.5818 75.6479 51.7084 74.7701 51.7084 73.6911C51.7084 72.612 52.5819 71.7342 53.6609 71.7342ZM53.6609 66.5319C54.7399 66.5319 55.6177 67.4097 55.6177 68.4887C55.6177 69.5677 54.7399 70.4455 53.6609 70.4455C52.5818 70.4455 51.7084 69.5678 51.7084 68.4887C51.7084 67.4097 52.5819 66.5319 53.6609 66.5319ZM63.6159 66.5319C64.695 66.5319 65.5684 67.4097 65.5684 68.4887C65.5684 69.5677 64.6949 70.4455 63.6159 70.4455C62.5369 70.4455 61.6591 69.5678 61.6591 68.4887C61.6591 67.4097 62.5369 66.5319 63.6159 66.5319ZM48.6855 66.5319C49.7645 66.5319 50.6423 67.4097 50.6423 68.4887C50.6423 69.5677 49.7646 70.4455 48.6855 70.4455C47.6065 70.4455 46.7287 69.5678 46.7287 68.4887C46.7287 67.4097 47.6065 66.5319 48.6855 66.5319ZM58.6363 66.5319C59.7153 66.5319 60.5931 67.4097 60.5931 68.4887C60.5931 69.5677 59.7154 70.4455 58.6363 70.4455C57.5573 70.4455 56.6839 69.5678 56.6839 68.4887C56.6839 67.4097 57.5574 66.5319 58.6363 66.5319ZM43.7103 66.5319C44.7893 66.5319 45.6627 67.4097 45.6627 68.4887C45.6627 69.5677 44.7892 70.4455 43.7103 70.4455C42.6314 70.4455 41.7535 69.5678 41.7535 68.4887C41.7535 67.4097 42.6313 66.5319 43.7103 66.5319ZM68.5914 66.5319C69.6704 66.5319 70.5482 67.4097 70.5482 68.4887C70.5482 69.5677 69.6704 70.4455 68.5914 70.4455C67.5123 70.4455 66.6346 69.5678 66.6346 68.4887C66.6346 67.4097 67.5123 66.5319 68.5914 66.5319ZM38.735 66.5319C39.8097 66.5319 40.6874 67.4097 40.6874 68.4887C40.6874 69.5677 39.8096 70.4455 38.735 70.4455C37.6517 70.4455 36.7782 69.5678 36.7782 68.4887C36.7782 67.4097 37.6516 66.5319 38.735 66.5319ZM33.7552 66.5319C34.8343 66.5319 35.7121 67.4097 35.7121 68.4887C35.7121 69.5677 34.8343 70.4455 33.7552 70.4455C32.6762 70.4455 31.8028 69.5678 31.8028 68.4887C31.8028 67.4097 32.6763 66.5319 33.7552 66.5319ZM28.8013 66.4034C29.8717 66.4034 30.7409 67.2684 30.7409 68.3388C30.7409 69.4092 29.8717 70.2784 28.8013 70.2784C27.7308 70.2784 26.8617 69.4092 26.8617 68.3388C26.8617 67.2683 27.7309 66.4034 28.8013 66.4034ZM33.7552 61.3296C34.8343 61.3296 35.7121 62.2073 35.7121 63.2864C35.7121 64.3654 34.8343 65.2432 33.7552 65.2432C32.6762 65.2432 31.8028 64.3654 31.8028 63.2864C31.8028 62.2073 32.6763 61.3296 33.7552 61.3296ZM63.6161 61.3296C64.6951 61.3296 65.5685 62.2073 65.5685 63.2864C65.5685 64.3654 64.695 65.2432 63.6161 65.2432C62.5371 65.2432 61.6592 64.3654 61.6592 63.2864C61.6592 62.2073 62.537 61.3296 63.6161 61.3296ZM73.5668 61.3296C74.6458 61.3296 75.5237 62.2073 75.5237 63.2864C75.5237 64.3654 74.6459 65.2432 73.5668 65.2432C72.4878 65.2432 71.6144 64.3654 71.6144 63.2864C71.6144 62.2073 72.4879 61.3296 73.5668 61.3296ZM48.6858 61.3296C49.7648 61.3296 50.6426 62.2073 50.6426 63.2864C50.6426 64.3654 49.7648 65.2432 48.6858 65.2432C47.6067 65.2432 46.7289 64.3654 46.7289 63.2864C46.7289 62.2073 47.6067 61.3296 48.6858 61.3296ZM68.5915 61.3296C69.6705 61.3296 70.5483 62.2073 70.5483 63.2864C70.5483 64.3654 69.6706 65.2432 68.5915 65.2432C67.5124 65.2432 66.6347 64.3654 66.6347 63.2864C66.6347 62.2073 67.5124 61.3296 68.5915 61.3296ZM58.6364 61.3296C59.7154 61.3296 60.5933 62.2073 60.5933 63.2864C60.5933 64.3654 59.7155 65.2432 58.6364 65.2432C57.5574 65.2432 56.684 64.3654 56.684 63.2864C56.684 62.2073 57.5575 61.3296 58.6364 61.3296ZM18.825 61.3296C19.904 61.3296 20.7818 62.2073 20.7818 63.2864C20.7818 64.3654 19.904 65.2432 18.825 65.2432C17.7459 65.2432 16.8725 64.3654 16.8725 63.2864C16.8725 62.2073 17.746 61.3296 18.825 61.3296ZM23.8047 61.3296C24.8837 61.3296 25.7571 62.2073 25.7571 63.2864C25.7571 64.3654 24.8836 65.2432 23.8047 65.2432C22.7257 65.2432 21.8479 64.3654 21.8479 63.2864C21.8479 62.2073 22.7256 61.3296 23.8047 61.3296ZM38.7351 61.3296C39.8098 61.3296 40.6875 62.2073 40.6875 63.2864C40.6875 64.3654 39.8097 65.2432 38.7351 65.2432C37.6518 65.2432 36.7783 64.3654 36.7783 63.2864C36.7783 62.2073 37.6517 61.3296 38.7351 61.3296ZM28.78 61.3296C29.859 61.3296 30.7324 62.2073 30.7324 63.2864C30.7324 64.3654 29.859 65.2432 28.78 65.2432C27.701 65.2432 26.8232 64.3654 26.8232 63.2864C26.8232 62.2073 27.701 61.3296 28.78 61.3296ZM43.7104 61.3296C44.7894 61.3296 45.6628 62.2073 45.6628 63.2864C45.6628 64.3654 44.7894 65.2432 43.7104 65.2432C42.6315 65.2432 41.7536 64.3654 41.7536 63.2864C41.7536 62.2073 42.6314 61.3296 43.7104 61.3296ZM53.6612 61.3296C54.7402 61.3296 55.618 62.2073 55.618 63.2864C55.618 64.3654 54.7403 65.2432 53.6612 65.2432C52.5822 65.2432 51.7088 64.3654 51.7088 63.2864C51.7088 62.2073 52.5823 61.3296 53.6612 61.3296ZM13.9396 61.2311C15.01 61.2311 15.8749 62.1003 15.8749 63.1707C15.8749 64.2411 15.01 65.1103 13.9396 65.1103C12.8692 65.1103 12 64.2411 12 63.1707C12 62.1003 12.8692 61.2311 13.9396 61.2311ZM78.3461 61.017C79.4165 61.017 80.2814 61.8862 80.2814 62.9566C80.2814 64.027 79.4165 64.8919 78.3461 64.8919C77.2756 64.8919 76.4065 64.027 76.4065 62.9566C76.4065 61.8862 77.2757 61.017 78.3461 61.017ZM88.4682 56.2771C89.5386 56.2771 90.4078 57.1463 90.4078 58.2167C90.4078 59.2872 89.5386 60.1563 88.4682 60.1563C87.3978 60.1563 86.5286 59.2871 86.5286 58.2167C86.5286 57.1463 87.3978 56.2771 88.4682 56.2771ZM58.637 56.1272C59.716 56.1272 60.5938 57.005 60.5938 58.0841C60.5938 59.1631 59.716 60.0409 58.637 60.0409C57.5579 60.0409 56.6846 59.1631 56.6846 58.0841C56.6846 57.005 57.558 56.1272 58.637 56.1272ZM53.6615 56.1272C54.7405 56.1272 55.6183 57.005 55.6183 58.0841C55.6183 59.1631 54.7406 60.0409 53.6615 60.0409C52.5825 60.0409 51.7091 59.1631 51.7091 58.0841C51.7091 57.005 52.5826 56.1272 53.6615 56.1272ZM28.7805 56.1272C29.8595 56.1272 30.7329 57.005 30.7329 58.0841C30.7329 59.1631 29.8594 60.0409 28.7805 60.0409C27.7015 60.0409 26.8236 59.1631 26.8236 58.0841C26.8236 57.005 27.7014 56.1272 28.7805 56.1272ZM38.7355 56.1272C39.8102 56.1272 40.6879 57.005 40.6879 58.0841C40.6879 59.1631 39.8102 60.0409 38.7355 60.0409C37.6522 60.0409 36.7787 59.1631 36.7787 58.0841C36.7787 57.005 37.6522 56.1272 38.7355 56.1272ZM73.5673 56.1272C74.6463 56.1272 75.5241 57.005 75.5241 58.0841C75.5241 59.1631 74.6463 60.0409 73.5673 60.0409C72.4883 60.0409 71.6148 59.1631 71.6148 58.0841C71.6148 57.005 72.4883 56.1272 73.5673 56.1272ZM23.8051 56.1272C24.8841 56.1272 25.7575 57.005 25.7575 58.0841C25.7575 59.1631 24.8841 60.0409 23.8051 60.0409C22.7262 60.0409 21.8483 59.1631 21.8483 58.0841C21.8483 57.005 22.7261 56.1272 23.8051 56.1272ZM48.6862 56.1272C49.7652 56.1272 50.643 57.005 50.643 58.0841C50.643 59.1631 49.7652 60.0409 48.6862 60.0409C47.6071 60.0409 46.7294 59.1631 46.7294 58.0841C46.7294 57.005 47.6071 56.1272 48.6862 56.1272ZM63.6166 56.1272C64.6956 56.1272 65.569 57.005 65.569 58.0841C65.569 59.1631 64.6956 60.0409 63.6166 60.0409C62.5376 60.0409 61.6598 59.1631 61.6598 58.0841C61.6598 57.005 62.5375 56.1272 63.6166 56.1272ZM68.592 56.1272C69.6711 56.1272 70.5489 57.005 70.5489 58.0841C70.5489 59.1631 69.6711 60.0409 68.592 60.0409C67.513 60.0409 66.6352 59.1631 66.6352 58.0841C66.6352 57.005 67.513 56.1272 68.592 56.1272ZM43.711 56.1272C44.79 56.1272 45.6634 57.005 45.6634 58.0841C45.6634 59.1631 44.7899 60.0409 43.711 60.0409C42.632 60.0409 41.7542 59.1631 41.7542 58.0841C41.7542 57.005 42.6319 56.1272 43.711 56.1272ZM18.8255 56.1272C19.9045 56.1272 20.7823 57.005 20.7823 58.0841C20.7823 59.1631 19.9046 60.0409 18.8255 60.0409C17.7464 60.0409 16.8731 59.1631 16.8731 58.0841C16.8731 57.005 17.7466 56.1272 18.8255 56.1272ZM33.7559 56.1272C34.8349 56.1272 35.7127 57.005 35.7127 58.0841C35.7127 59.1631 34.835 60.0409 33.7559 60.0409C32.6768 60.0409 31.8035 59.1631 31.8035 58.0841C31.8035 57.005 32.677 56.1272 33.7559 56.1272ZM13.94 56.063C15.0105 56.063 15.8754 56.9322 15.8754 58.0026C15.8754 59.0688 15.0105 59.938 13.94 59.938C12.8696 59.938 12.0004 59.0688 12.0004 58.0026C12.0004 56.9322 12.8696 56.063 13.94 56.063ZM76.4064 57.8914V57.7843C76.4064 56.7139 77.2756 55.849 78.346 55.849C79.4164 55.849 80.2813 56.7139 80.2813 57.7843C80.2813 57.8229 80.2813 57.8571 80.277 57.8914C80.2813 57.9299 80.2813 57.9642 80.2813 58.0027C80.2813 59.0689 79.4164 59.938 78.346 59.938C77.2755 59.938 76.4064 59.0688 76.4064 58.0027V57.8914ZM93.4216 55.8489C94.4921 55.8489 95.3612 56.7139 95.3612 57.7843C95.3612 58.8547 94.492 59.7239 93.4216 59.7239C92.3512 59.7239 91.482 58.8547 91.482 57.7843C91.482 56.7138 92.3512 55.8489 93.4216 55.8489ZM33.7548 50.9249C34.8338 50.9249 35.7116 51.8027 35.7116 52.8817C35.7116 53.9608 34.8339 54.8385 33.7548 54.8385C32.6758 54.8385 31.8024 53.9608 31.8024 52.8817C31.8024 51.8027 32.6759 50.9249 33.7548 50.9249ZM58.6359 50.9249C59.7149 50.9249 60.5927 51.8027 60.5927 52.8817C60.5927 53.9608 59.7149 54.8385 58.6359 54.8385C57.5568 54.8385 56.6835 53.9608 56.6835 52.8817C56.6835 51.8027 57.5569 50.9249 58.6359 50.9249ZM53.6604 50.9249C54.7394 50.9249 55.6173 51.8027 55.6173 52.8817C55.6173 53.9608 54.7395 54.8385 53.6604 54.8385C52.5814 54.8385 51.708 53.9608 51.708 52.8817C51.708 51.8027 52.5815 50.9249 53.6604 50.9249ZM38.7344 50.9249C39.8091 50.9249 40.6868 51.8027 40.6868 52.8817C40.6868 53.9608 39.8091 54.8385 38.7344 54.8385C37.6511 54.8385 36.7776 53.9608 36.7776 52.8817C36.7776 51.8027 37.6511 50.9249 38.7344 50.9249ZM28.7794 50.9249C29.8584 50.9249 30.7318 51.8027 30.7318 52.8817C30.7318 53.9608 29.8583 54.8385 28.7794 54.8385C27.7004 54.8385 26.8225 53.9608 26.8225 52.8817C26.8225 51.8027 27.7003 50.9249 28.7794 50.9249ZM63.6155 50.9249C64.6945 50.9249 65.5679 51.8027 65.5679 52.8817C65.5679 53.9608 64.6945 54.8385 63.6155 54.8385C62.5365 54.8385 61.6587 53.9608 61.6587 52.8817C61.6587 51.8027 62.5364 50.9249 63.6155 50.9249ZM48.6851 50.9249C49.7641 50.9249 50.6419 51.8027 50.6419 52.8817C50.6419 53.9608 49.7642 54.8385 48.6851 54.8385C47.606 54.8385 46.7283 53.9608 46.7283 52.8817C46.7283 51.8027 47.606 50.9249 48.6851 50.9249ZM68.5908 50.9249C69.6699 50.9249 70.5477 51.8027 70.5477 52.8817C70.5477 53.9608 69.6699 54.8385 68.5908 54.8385C67.5118 54.8385 66.634 53.9608 66.634 52.8817C66.634 51.8027 67.5118 50.9249 68.5908 50.9249ZM93.4719 50.9249C94.5509 50.9249 95.4287 51.8027 95.4287 52.8817C95.4287 53.9608 94.551 54.8385 93.4719 54.8385C92.3929 54.8385 91.5195 53.9608 91.5195 52.8817C91.5195 51.8027 92.393 50.9249 93.4719 50.9249ZM73.5662 50.9249C74.6452 50.9249 75.523 51.8027 75.523 52.8817C75.523 53.9608 74.6452 54.8385 73.5662 54.8385C72.4872 54.8385 71.6138 53.9608 71.6138 52.8817C71.6138 51.8027 72.4872 50.9249 73.5662 50.9249ZM43.7098 50.9249C44.7888 50.9249 45.6622 51.8027 45.6622 52.8817C45.6622 53.9608 44.7887 54.8385 43.7098 54.8385C42.6308 54.8385 41.7529 53.9608 41.7529 52.8817C41.7529 51.8027 42.6307 50.9249 43.7098 50.9249ZM23.804 50.9249C24.883 50.9249 25.7564 51.8027 25.7564 52.8817C25.7564 53.9608 24.883 54.8385 23.804 54.8385C22.7251 54.8385 21.8472 53.9608 21.8472 52.8817C21.8472 51.8027 22.725 50.9249 23.804 50.9249ZM78.3453 50.8906C79.4157 50.8906 80.2806 51.7598 80.2806 52.8302C80.2806 53.9007 79.4157 54.7699 78.3453 54.7699C77.2749 54.7699 76.4057 53.9007 76.4057 52.8302C76.4057 51.7598 77.2749 50.8906 78.3453 50.8906ZM88.4674 50.8906C89.5379 50.8906 90.407 51.7598 90.407 52.8302C90.407 53.9007 89.5378 54.7699 88.4674 54.7699C87.397 54.7699 86.5278 53.9007 86.5278 52.8302C86.5278 51.7598 87.397 50.8906 88.4674 50.8906ZM58.6362 45.7226C59.7152 45.7226 60.593 46.6004 60.593 47.6794C60.593 48.7584 59.7153 49.6319 58.6362 49.6319C57.5572 49.6319 56.6838 48.7584 56.6838 47.6794C56.6838 46.6004 57.5573 45.7226 58.6362 45.7226ZM88.497 45.7226C89.576 45.7226 90.4495 46.6004 90.4495 47.6794C90.4495 48.7584 89.576 49.6319 88.497 49.6319C87.4181 49.6319 86.5402 48.7584 86.5402 47.6794C86.5402 46.6004 87.418 45.7226 88.497 45.7226ZM28.7798 45.7226C29.8588 45.7226 30.7322 46.6004 30.7322 47.6794C30.7322 48.7584 29.8587 49.6319 28.7798 49.6319C27.7008 49.6319 26.823 48.7584 26.823 47.6794C26.823 46.6004 27.7007 45.7226 28.7798 45.7226ZM48.6855 45.7226C49.7645 45.7226 50.6423 46.6004 50.6423 47.6794C50.6423 48.7584 49.7646 49.6319 48.6855 49.6319C47.6065 49.6319 46.7287 48.7584 46.7287 47.6794C46.7287 46.6004 47.6065 45.7226 48.6855 45.7226ZM43.7101 45.7226C44.7891 45.7226 45.6625 46.6004 45.6625 47.6794C45.6625 48.7584 44.789 49.6319 43.7101 49.6319C42.6311 49.6319 41.7533 48.7584 41.7533 47.6794C41.7533 46.6004 42.631 45.7226 43.7101 45.7226ZM68.5912 45.7226C69.6702 45.7226 70.548 46.6004 70.548 47.6794C70.548 48.7584 69.6702 49.6319 68.5912 49.6319C67.5121 49.6319 66.6344 48.7584 66.6344 47.6794C66.6344 46.6004 67.5121 45.7226 68.5912 45.7226ZM33.755 45.7226C34.834 45.7226 35.7118 46.6004 35.7118 47.6794C35.7118 48.7584 34.8341 49.6319 33.755 49.6319C32.676 49.6319 31.8026 48.7584 31.8026 47.6794C31.8026 46.6004 32.6761 45.7226 33.755 45.7226ZM93.4723 45.7226C94.5513 45.7226 95.4291 46.6004 95.4291 47.6794C95.4291 48.7584 94.5513 49.6319 93.4723 49.6319C92.3932 49.6319 91.5198 48.7584 91.5198 47.6794C91.5198 46.6004 92.3933 45.7226 93.4723 45.7226ZM38.7337 45.7226C39.8084 45.7226 40.6861 46.6004 40.6861 47.6794C40.6861 48.7584 39.8083 49.6319 38.7337 49.6319C37.6504 49.6319 36.7768 48.7584 36.7768 47.6794C36.7768 46.6004 37.6503 45.7226 38.7337 45.7226ZM83.5205 45.7226C84.5995 45.7226 85.4729 46.6004 85.4729 47.6794C85.4729 48.7584 84.5994 49.6319 83.5205 49.6319C82.4415 49.6319 81.5637 48.7584 81.5637 47.6794C81.5637 46.6004 82.4414 45.7226 83.5205 45.7226ZM23.8032 45.7226C24.8823 45.7226 25.7557 46.6004 25.7557 47.6794C25.7557 48.7584 24.8822 49.6319 23.8032 49.6319C22.7243 49.6319 21.8464 48.7584 21.8464 47.6794C21.8464 46.6004 22.7242 45.7226 23.8032 45.7226ZM53.6597 45.7226C54.7387 45.7226 55.6165 46.6004 55.6165 47.6794C55.6165 48.7584 54.7387 49.6319 53.6597 49.6319C52.5806 49.6319 51.7072 48.7584 51.7072 47.6794C51.7072 46.6004 52.5807 45.7226 53.6597 45.7226ZM63.6147 45.7226C64.6937 45.7226 65.5672 46.6004 65.5672 47.6794C65.5672 48.7584 64.6937 49.6319 63.6147 49.6319C62.5357 49.6319 61.6579 48.7584 61.6579 47.6794C61.6579 46.6004 62.5357 45.7226 63.6147 45.7226ZM78.5583 45.7226C79.6287 45.7226 80.4979 46.5918 80.4979 47.6622C80.4979 48.7327 79.6287 49.6018 78.5583 49.6018C77.4879 49.6018 76.6187 48.7326 76.6187 47.6622C76.6187 46.5918 77.4879 45.7226 78.5583 45.7226ZM18.6734 45.7226C19.7438 45.7226 20.613 46.5918 20.613 47.6622C20.613 48.7327 19.7438 49.6018 18.6734 49.6018C17.6029 49.6018 16.738 48.7326 16.738 47.6622C16.738 46.5918 17.6029 45.7226 18.6734 45.7226ZM73.6038 45.7226C74.6742 45.7226 75.5434 46.5918 75.5434 47.6622C75.5434 48.7327 74.6742 49.6018 73.6038 49.6018C72.5333 49.6018 71.6642 48.7326 71.6642 47.6622C71.6642 46.5918 72.5334 45.7226 73.6038 45.7226ZM38.7337 40.5203C39.8084 40.5203 40.6861 41.398 40.6861 42.4771C40.6861 43.5561 39.8083 44.4295 38.7337 44.4295C37.6504 44.4295 36.7768 43.556 36.7768 42.4771C36.7768 41.3981 37.6503 40.5203 38.7337 40.5203ZM48.6844 40.5203C49.7635 40.5203 50.6413 41.398 50.6413 42.4771C50.6413 43.5561 49.7635 44.4295 48.6844 44.4295C47.6054 44.4295 46.7276 43.556 46.7276 42.4771C46.7276 41.3981 47.6054 40.5203 48.6844 40.5203ZM53.6599 40.5203C54.7389 40.5203 55.6167 41.398 55.6167 42.4771C55.6167 43.5561 54.7389 44.4295 53.6599 44.4295C52.5808 44.4295 51.7075 43.556 51.7075 42.4771C51.7075 41.3981 52.5809 40.5203 53.6599 40.5203ZM43.7091 40.5203C44.7881 40.5203 45.6615 41.398 45.6615 42.4771C45.6615 43.5561 44.788 44.4295 43.7091 44.4295C42.6302 44.4295 41.7523 43.556 41.7523 42.4771C41.7523 41.3981 42.63 40.5203 43.7091 40.5203ZM28.7787 40.5203C29.8577 40.5203 30.7311 41.398 30.7311 42.4771C30.7311 43.5561 29.8577 44.4295 28.7787 44.4295C27.6997 44.4295 26.8219 43.556 26.8219 42.4771C26.8219 41.3981 27.6996 40.5203 28.7787 40.5203ZM33.7541 40.5203C34.8332 40.5203 35.711 41.398 35.711 42.4771C35.711 43.5561 34.8332 44.4295 33.7541 44.4295C32.6751 44.4295 31.8017 43.556 31.8017 42.4771C31.8017 41.3981 32.6752 40.5203 33.7541 40.5203ZM93.4714 40.5203C94.5504 40.5203 95.4282 41.398 95.4282 42.4771C95.4282 43.5561 94.5504 44.4295 93.4714 44.4295C92.3923 44.4295 91.519 43.556 91.519 42.4771C91.519 41.3981 92.3924 40.5203 93.4714 40.5203ZM98.5924 40.5545C99.6628 40.5545 100.528 41.4194 100.528 42.4898C100.528 43.5603 99.6628 44.4295 98.5924 44.4295C97.522 44.4295 96.6528 43.5602 96.6528 42.4898C96.6528 41.4194 97.522 40.5545 98.5924 40.5545ZM103.546 40.5545C104.617 40.5545 105.482 41.4194 105.482 42.4898C105.482 43.5603 104.617 44.4295 103.546 44.4295C102.476 44.4295 101.607 43.5602 101.607 42.4898C101.607 41.4194 102.476 40.5545 103.546 40.5545ZM88.6806 40.5545C89.7511 40.5545 90.6202 41.4194 90.6202 42.4898C90.6202 43.5603 89.751 44.4295 88.6806 44.4295C87.6102 44.4295 86.7453 43.5602 86.7453 42.4898C86.7453 41.4194 87.6102 40.5545 88.6806 40.5545ZM78.5585 40.5545C79.629 40.5545 80.4981 41.4194 80.4981 42.4898C80.4981 43.5603 79.6289 44.4295 78.5585 44.4295C77.4881 44.4295 76.6189 43.5602 76.6189 42.4898C76.6189 41.4194 77.4881 40.5545 78.5585 40.5545ZM23.8462 40.5545C24.9167 40.5545 25.7858 41.4194 25.7858 42.4898C25.7858 43.5603 24.9166 44.4295 23.8462 44.4295C22.7758 44.4295 21.9066 43.5602 21.9066 42.4898C21.9066 41.4194 22.7758 40.5545 23.8462 40.5545ZM18.6738 40.5545C19.7442 40.5545 20.6134 41.4194 20.6134 42.4898C20.6134 43.5603 19.7442 44.4295 18.6738 44.4295C17.6034 44.4295 16.7385 43.5602 16.7385 42.4898C16.7385 41.4194 17.6034 40.5545 18.6738 40.5545ZM93.6393 35.3821C94.7097 35.3821 95.5746 36.2513 95.5746 37.3217C95.5746 38.3921 94.7097 39.2613 93.6393 39.2613C92.5689 39.2613 91.6997 38.3921 91.6997 37.3217C91.6997 36.2513 92.5689 35.3821 93.6393 35.3821ZM98.5933 35.3821C99.6637 35.3821 100.529 36.2513 100.529 37.3217C100.529 38.3921 99.6637 39.2613 98.5933 39.2613C97.5228 39.2613 96.6537 38.3921 96.6537 37.3217C96.6537 36.2513 97.5229 35.3821 98.5933 35.3821ZM103.547 35.3821C104.618 35.3821 105.483 36.2513 105.483 37.3217C105.483 38.3921 104.618 39.2613 103.547 39.2613C102.477 39.2613 101.608 38.3921 101.608 37.3217C101.608 36.2513 102.477 35.3821 103.547 35.3821ZM33.7544 35.3179C34.8334 35.3179 35.7112 36.1956 35.7112 37.2747C35.7112 38.3537 34.8334 39.2271 33.7544 39.2271C32.6753 39.2271 31.8019 38.3536 31.8019 37.2747C31.8019 36.1957 32.6754 35.3179 33.7544 35.3179ZM38.7341 35.3179C39.8088 35.3179 40.6865 36.1956 40.6865 37.2747C40.6865 38.3537 39.8088 39.2271 38.7341 39.2271C37.6508 39.2271 36.7773 38.3536 36.7773 37.2747C36.7773 36.1957 37.6508 35.3179 38.7341 35.3179ZM43.7095 35.3179C44.7886 35.3179 45.662 36.1956 45.662 37.2747C45.662 38.3537 44.7885 39.2271 43.7095 39.2271C42.6306 39.2271 41.7527 38.3536 41.7527 37.2747C41.7527 36.1957 42.6305 35.3179 43.7095 35.3179ZM48.685 35.3179C49.764 35.3179 50.6418 36.1956 50.6418 37.2747C50.6418 38.3537 49.764 39.2271 48.685 39.2271C47.6059 39.2271 46.7282 38.3536 46.7282 37.2747C46.7282 36.1957 47.6059 35.3179 48.685 35.3179ZM33.754 30.2141C34.8245 30.2141 35.6936 31.0833 35.6936 32.1537C35.6936 33.2241 34.8244 34.089 33.754 34.089C32.6836 34.089 31.8144 33.2241 31.8144 32.1537C31.8144 31.0832 32.6836 30.2141 33.754 30.2141ZM38.7338 30.1156C39.8085 30.1156 40.6862 30.9933 40.6862 32.0724C40.6862 33.1514 39.8084 34.0248 38.7338 34.0248C37.6505 34.0248 36.7769 33.1513 36.7769 32.0724C36.7769 30.9934 37.6504 30.1156 38.7338 30.1156ZM43.7092 30.1156C44.7882 30.1156 45.6616 30.9933 45.6616 32.0724C45.6616 33.1514 44.7882 34.0248 43.7092 34.0248C42.6303 34.0248 41.7524 33.1513 41.7524 32.0724C41.7524 30.9934 42.6302 30.1156 43.7092 30.1156ZM33.7541 25.0417C34.8246 25.0417 35.6938 25.9109 35.6938 26.9813C35.6938 28.0517 34.8246 28.9209 33.7541 28.9209C32.6837 28.9209 31.8145 28.0517 31.8145 26.9813C31.8145 25.9109 32.6837 25.0417 33.7541 25.0417ZM48.6166 25.0417C49.687 25.0417 50.5562 25.9109 50.5562 26.9813C50.5562 28.0517 49.687 28.9209 48.6166 28.9209C47.5462 28.9209 46.677 28.0517 46.677 26.9813C46.677 25.9109 47.5462 25.0417 48.6166 25.0417ZM38.7343 24.9132C39.809 24.9132 40.6867 25.791 40.6867 26.8701C40.6867 27.9491 39.809 28.8225 38.7343 28.8225C37.651 28.8225 36.7775 27.949 36.7775 26.8701C36.7775 25.791 37.651 24.9132 38.7343 24.9132ZM43.7098 24.9132C44.7888 24.9132 45.6622 25.791 45.6622 26.8701C45.6622 27.9491 44.7887 28.8225 43.7098 28.8225C42.6308 28.8225 41.7529 27.949 41.7529 26.8701C41.7529 25.791 42.6307 24.9132 43.7098 24.9132ZM48.6167 19.8736C49.6871 19.8736 50.5563 20.7428 50.5563 21.8132C50.5563 22.8836 49.6871 23.7528 48.6167 23.7528C47.5463 23.7528 46.6771 22.8836 46.6771 21.8132C46.6771 20.7427 47.5463 19.8736 48.6167 19.8736ZM38.7344 19.7108C39.8091 19.7108 40.6868 20.5886 40.6868 21.6677C40.6868 22.7467 39.8091 23.6201 38.7344 23.6201C37.6511 23.6201 36.7776 22.7466 36.7776 21.6677C36.7776 20.5887 37.6511 19.7108 38.7344 19.7108ZM33.7547 19.7108C34.8337 19.7108 35.7115 20.5886 35.7115 21.6677C35.7115 22.7467 34.8337 23.6201 33.7547 23.6201C32.6756 23.6201 31.8023 22.7466 31.8023 21.6677C31.8023 20.5887 32.6758 19.7108 33.7547 19.7108ZM43.7098 19.7108C44.7888 19.7108 45.6622 20.5886 45.6622 21.6677C45.6622 22.7467 44.7887 23.6201 43.7098 23.6201C42.6308 23.6201 41.7529 22.7466 41.7529 21.6677C41.7529 20.5887 42.6307 19.7108 43.7098 19.7108ZM43.7098 14.5085C44.7888 14.5085 45.6622 15.3863 45.6622 16.4653C45.6622 17.5444 44.7887 18.4177 43.7098 18.4177C42.6308 18.4177 41.7529 17.5443 41.7529 16.4653C41.7529 15.3864 42.6307 14.5085 43.7098 14.5085ZM48.6852 14.5085C49.7642 14.5085 50.642 15.3863 50.642 16.4653C50.642 17.5444 49.7643 18.4177 48.6852 18.4177C47.6062 18.4177 46.7284 17.5443 46.7284 16.4653C46.7284 15.3864 47.6062 14.5085 48.6852 14.5085ZM33.7548 14.5085C34.8338 14.5085 35.7116 15.3863 35.7116 16.4653C35.7116 17.5444 34.8339 18.4177 33.7548 18.4177C32.6758 18.4177 31.8024 17.5443 31.8024 16.4653C31.8024 15.3864 32.6759 14.5085 33.7548 14.5085ZM38.7345 14.5085C39.8093 14.5085 40.687 15.3863 40.687 16.4653C40.687 17.5444 39.8092 18.4177 38.7345 18.4177C37.6512 18.4177 36.7777 17.5443 36.7777 16.4653C36.7777 15.3864 37.6512 14.5085 38.7345 14.5085ZM33.7548 9.30615C34.8338 9.30615 35.7116 10.1839 35.7116 11.263C35.7116 12.342 34.8339 13.2154 33.7548 13.2154C32.6758 13.2154 31.8024 12.3419 31.8024 11.263C31.8024 10.184 32.6759 9.30615 33.7548 9.30615ZM38.7088 9.30615C39.7792 9.30615 40.6484 10.1754 40.6484 11.2458C40.6484 12.3162 39.7792 13.1854 38.7088 13.1854C37.6383 13.1854 36.7692 12.3162 36.7692 11.2458C36.7692 10.1753 37.6384 9.30615 38.7088 9.30615Z" fill="#707070"/>
<path d="M30.231 11.263C30.231 10.1839 29.3532 9.30615 28.2742 9.30615C27.1952 9.30615 26.3217 10.184 26.3217 11.263C26.3217 12.3419 27.1951 13.2154 28.2742 13.2154C29.3532 13.2154 30.231 12.342 30.231 11.263Z" fill="#707070"/>
<path d="M30.231 16.4653C30.231 15.3863 29.3532 14.5085 28.2742 14.5085C27.1952 14.5085 26.3217 15.3864 26.3217 16.4653C26.3217 17.5443 27.1951 18.4177 28.2742 18.4177C29.3532 18.4177 30.231 17.5444 30.231 16.4653Z" fill="#707070"/>
<path d="M55.6167 16.4653C55.6167 15.3863 54.7389 14.5085 53.6599 14.5085C52.5809 14.5085 51.7075 15.3864 51.7075 16.4653C51.7075 17.5443 52.5808 18.4177 53.6599 18.4177C54.7389 18.4177 55.6167 17.5444 55.6167 16.4653Z" fill="#707070"/>
</svg>
