<svg width="48" height="49" viewBox="0 0 48 49" fill="none" xmlns="http://www.w3.org/2000/svg">
<path d="M17.25 13.9395C17.25 15.7297 17.9612 17.4466 19.227 18.7124C20.4929 19.9783 22.2098 20.6895 24 20.6895C25.7902 20.6895 27.5071 19.9783 28.773 18.7124C30.0388 17.4466 30.75 15.7297 30.75 13.9395C30.75 12.1492 30.0388 10.4324 28.773 9.16648C27.5071 7.90061 25.7902 7.18945 24 7.18945C22.2098 7.18945 20.4929 7.90061 19.227 9.16648C17.9612 10.4324 17.25 12.1492 17.25 13.9395Z" stroke="#02E4FD" stroke-width="2" stroke-linecap="round" stroke-linejoin="round"/>
<path d="M28.5 34.1895C28.5 35.9797 29.2112 37.6966 30.477 38.9624C31.7429 40.2283 33.4598 40.9395 35.25 40.9395C37.0402 40.9395 38.7571 40.2283 40.023 38.9624C41.2888 37.6966 42 35.9797 42 34.1895C42 32.3992 41.2888 30.6824 40.023 29.4165C38.7571 28.1506 37.0402 27.4395 35.25 27.4395C33.4598 27.4395 31.7429 28.1506 30.477 29.4165C29.2112 30.6824 28.5 32.3992 28.5 34.1895Z" stroke="#02E4FD" stroke-width="2" stroke-linecap="round" stroke-linejoin="round"/>
<path d="M6 34.1895C6 35.0759 6.17459 35.9536 6.51381 36.7726C6.85303 37.5915 7.35023 38.3356 7.97703 38.9624C8.60382 39.5892 9.34794 40.0864 10.1669 40.4256C10.9858 40.7649 11.8636 40.9395 12.75 40.9395C13.6364 40.9395 14.5142 40.7649 15.3331 40.4256C16.1521 40.0864 16.8962 39.5892 17.523 38.9624C18.1498 38.3356 18.647 37.5915 18.9862 36.7726C19.3254 35.9536 19.5 35.0759 19.5 34.1895C19.5 33.303 19.3254 32.4253 18.9862 31.6063C18.647 30.7874 18.1498 30.0433 17.523 29.4165C16.8962 28.7897 16.1521 28.2925 15.3331 27.9533C14.5142 27.614 13.6364 27.4395 12.75 27.4395C11.8636 27.4395 10.9858 27.614 10.1669 27.9533C9.34794 28.2925 8.60382 28.7897 7.97703 29.4165C7.35023 30.0433 6.85303 30.7874 6.51381 31.6063C6.17459 32.4253 6 33.303 6 34.1895Z" stroke="#02E4FD" stroke-width="2" stroke-linecap="round" stroke-linejoin="round"/>
</svg>
