<svg width="84" height="85" viewBox="0 0 84 85" fill="none" xmlns="http://www.w3.org/2000/svg">
<rect y="0.939819" width="84" height="84" rx="42" fill="white" fill-opacity="0.1"/>
<g clip-path="url(#clip0_612_13388)">
<path d="M27.75 42.9398H29.3333M42 28.6898V30.2732M54.6667 42.9398H56.25M31.8667 32.8065L32.975 33.9148M52.1333 32.8065L51.025 33.9148" stroke="white" stroke-width="2" stroke-linecap="round" stroke-linejoin="round"/>
<path d="M37.2502 49.2732C35.9209 48.2763 34.939 46.8863 34.4436 45.3004C33.9482 43.7144 33.9643 42.0127 34.4898 40.4364C35.0152 38.8601 36.0233 37.4891 37.3712 36.5175C38.7191 35.546 40.3386 35.0232 42.0002 35.0232C43.6617 35.0232 45.2812 35.546 46.6291 36.5175C47.9771 37.4891 48.9851 38.8601 49.5106 40.4364C50.036 42.0127 50.0522 43.7144 49.5567 45.3004C49.0613 46.8863 48.0794 48.2763 46.7502 49.2732C46.132 49.8851 45.6665 50.634 45.3915 51.4592C45.1164 52.2844 45.0394 53.1627 45.1668 54.0232C45.1668 54.863 44.8332 55.6685 44.2393 56.2624C43.6455 56.8562 42.84 57.1899 42.0002 57.1899C41.1603 57.1899 40.3549 56.8562 39.761 56.2624C39.1671 55.6685 38.8335 54.863 38.8335 54.0232C38.9609 53.1627 38.8839 52.2844 38.6089 51.4592C38.3338 50.634 37.8683 49.8851 37.2502 49.2732Z" stroke="white" stroke-width="2" stroke-linecap="round" stroke-linejoin="round"/>
<path d="M38.3584 50.8564H45.6417" stroke="white" stroke-width="2" stroke-linecap="round" stroke-linejoin="round"/>
</g>
<defs>
<clipPath id="clip0_612_13388">
<rect width="38" height="38" fill="white" transform="translate(23 23.9398)"/>
</clipPath>
</defs>
</svg>
