<svg width="64" height="64" viewBox="0 0 64 64" fill="none" xmlns="http://www.w3.org/2000/svg">
<rect x="0.69751" y="0.6875" width="62.907" height="62.907" rx="31.4535" fill="white" fill-opacity="0.05"/>
<g clip-path="url(#clip0_2001_813)">
<path d="M32.1512 20.0141C36.1031 20.0141 36.5711 20.0314 38.1253 20.1007C39.5697 20.1643 40.3496 20.4069 40.8696 20.6091C41.5572 20.8749 42.054 21.1985 42.5682 21.7127C43.0882 22.2327 43.406 22.7237 43.6718 23.4113C43.874 23.9313 44.1166 24.717 44.1802 26.1556C44.2495 27.7156 44.2668 28.1836 44.2668 32.1297C44.2668 36.0815 44.2495 36.5495 44.1802 38.1037C44.1166 39.5481 43.874 40.3281 43.6718 40.8481C43.406 41.5356 43.0824 42.0325 42.5682 42.5467C42.0483 43.0667 41.5572 43.3844 40.8696 43.6502C40.3496 43.8524 39.5639 44.0951 38.1253 44.1586C36.5653 44.228 36.0973 44.2453 32.1512 44.2453C28.1994 44.2453 27.7314 44.228 26.1772 44.1586C24.7328 44.0951 23.9528 43.8524 23.4328 43.6502C22.7453 43.3844 22.2484 43.0609 21.7342 42.5467C21.2143 42.0267 20.8965 41.5356 20.6307 40.8481C20.4285 40.3281 20.1858 39.5423 20.1223 38.1037C20.053 36.5438 20.0356 36.0758 20.0356 32.1297C20.0356 28.1778 20.053 27.7098 20.1223 26.1556C20.1858 24.7112 20.4285 23.9313 20.6307 23.4113C20.8965 22.7237 21.22 22.2269 21.7342 21.7127C22.2542 21.1927 22.7453 20.8749 23.4328 20.6091C23.9528 20.4069 24.7386 20.1643 26.1772 20.1007C27.7314 20.0314 28.1994 20.0141 32.1512 20.0141ZM32.1512 17.3506C28.1358 17.3506 27.6332 17.3679 26.0559 17.4372C24.4844 17.5066 23.404 17.7608 22.468 18.1248C21.4916 18.5061 20.6654 19.0088 19.845 19.835C19.0188 20.6554 18.5161 21.4816 18.1348 22.4522C17.7708 23.3939 17.5166 24.4686 17.4473 26.0401C17.3779 27.6231 17.3606 28.1258 17.3606 32.1412C17.3606 36.1567 17.3779 36.6593 17.4473 38.2366C17.5166 39.8081 17.7708 40.8885 18.1348 41.8245C18.5161 42.8009 19.0188 43.6271 19.845 44.4475C20.6654 45.2679 21.4916 45.7763 22.4622 46.1519C23.404 46.5159 24.4786 46.7701 26.0501 46.8394C27.6274 46.9088 28.13 46.9261 32.1455 46.9261C36.1609 46.9261 36.6635 46.9088 38.2408 46.8394C39.8123 46.7701 40.8927 46.5159 41.8287 46.1519C42.7993 45.7763 43.6255 45.2679 44.446 44.4475C45.2664 43.6271 45.7748 42.8009 46.1503 41.8303C46.5143 40.8885 46.7685 39.8139 46.8379 38.2424C46.9072 36.6651 46.9245 36.1624 46.9245 32.147C46.9245 28.1316 46.9072 27.6289 46.8379 26.0516C46.7685 24.4801 46.5143 23.3997 46.1503 22.4638C45.7864 21.4816 45.2837 20.6554 44.4575 19.835C43.6371 19.0145 42.8109 18.5061 41.8403 18.1306C40.8985 17.7666 39.8239 17.5124 38.2524 17.443C36.6693 17.3679 36.1667 17.3506 32.1512 17.3506Z" fill="white"/>
<path d="M32.1456 24.5435C27.9511 24.5435 24.5481 27.9465 24.5481 32.141C24.5481 36.3355 27.9511 39.7385 32.1456 39.7385C36.3402 39.7385 39.7432 36.3355 39.7432 32.141C39.7432 27.9465 36.3402 24.5435 32.1456 24.5435ZM32.1456 37.0693C29.4244 37.0693 27.2173 34.8622 27.2173 32.141C27.2173 29.4197 29.4244 27.2127 32.1456 27.2127C34.8669 27.2127 37.0739 29.4197 37.0739 32.141C37.0739 34.8622 34.8669 37.0693 32.1456 37.0693Z" fill="white"/>
<path d="M41.8258 24.2435C41.8258 25.2256 41.0285 26.0172 40.052 26.0172C39.0699 26.0172 38.2783 25.2199 38.2783 24.2435C38.2783 23.2613 39.0756 22.4697 40.052 22.4697C41.0285 22.4697 41.8258 23.267 41.8258 24.2435Z" fill="white"/>
</g>
<defs>
<clipPath id="clip0_2001_813">
<rect width="29.5813" height="29.5813" fill="white" transform="translate(17.3606 17.3506)"/>
</clipPath>
</defs>
</svg>
