<svg width="120" height="121" viewBox="0 0 120 121" fill="none" xmlns="http://www.w3.org/2000/svg">
<path fill-rule="evenodd" clip-rule="evenodd" d="M20.2265 104.008C21.207 104.008 22.0038 104.805 22.0038 105.785C22.0038 106.766 21.2069 107.563 20.2265 107.563C19.2499 107.563 18.4531 106.766 18.4531 105.785C18.4531 104.805 19.25 104.008 20.2265 104.008ZM15.7773 104.008C16.7578 104.008 17.5507 104.805 17.5507 105.785C17.5507 106.766 16.7577 107.563 15.7773 107.563C14.7968 107.563 14 106.766 14 105.785C14 104.805 14.7969 104.008 15.7773 104.008ZM20.3515 99.6174C21.3398 99.6174 22.1406 100.422 22.1406 101.41C22.1406 102.399 21.3398 103.2 20.3515 103.2C19.3632 103.2 18.5585 102.399 18.5585 101.41C18.5585 100.422 19.3632 99.6174 20.3515 99.6174ZM15.7773 99.6331C16.7578 99.6331 17.5507 100.43 17.5507 101.41C17.5507 102.391 16.7577 103.188 15.7773 103.188C14.7968 103.188 14 102.391 14 101.41C14 100.43 14.7969 99.6331 15.7773 99.6331ZM24.8554 94.9573C25.8359 94.9573 26.6327 95.7541 26.6327 96.7346C26.6327 97.715 25.8358 98.508 24.8554 98.508C23.8749 98.508 23.0781 97.715 23.0781 96.7346C23.0781 95.7541 23.875 94.9573 24.8554 94.9573ZM20.3515 94.8518C21.3398 94.8518 22.1406 95.6526 22.1406 96.6409C22.1406 97.6331 21.3398 98.4339 20.3515 98.4339C19.3632 98.4339 18.5585 97.6331 18.5585 96.6409C18.5585 95.6526 19.3632 94.8518 20.3515 94.8518ZM15.7773 94.7619C16.7578 94.7619 17.5507 95.5588 17.5507 96.5392C17.5507 97.5197 16.7577 98.3126 15.7773 98.3126C14.7968 98.3126 14 97.5197 14 96.5392C14 95.5588 14.7969 94.7619 15.7773 94.7619ZM29.4613 94.7619C30.4418 94.7619 31.2347 95.5588 31.2347 96.5392C31.2347 97.5197 30.4417 98.3126 29.4613 98.3126C28.4808 98.3126 27.684 97.5197 27.684 96.5392C27.684 95.5588 28.4809 94.7619 29.4613 94.7619ZM15.7773 90.2111C16.7578 90.2111 17.5507 91.0119 17.5507 91.9884C17.5507 92.9689 16.7577 93.7657 15.7773 93.7657C14.7968 93.7657 14 92.9689 14 91.9884C14 91.0119 14.7969 90.2111 15.7773 90.2111ZM20.3281 90.2111C21.3086 90.2111 22.1054 91.0119 22.1054 91.9884C22.1054 92.9689 21.3085 93.7657 20.3281 93.7657C19.3476 93.7657 18.5547 92.9689 18.5547 91.9884C18.5547 91.0119 19.3477 90.2111 20.3281 90.2111ZM43.2111 90.1486C44.1916 90.1486 44.9845 90.9455 44.9845 91.9259C44.9845 92.9064 44.1915 93.7032 43.2111 93.7032C42.2306 93.7032 41.4338 92.9064 41.4338 91.9259C41.4338 90.9455 42.2307 90.1486 43.2111 90.1486ZM47.7502 90.1486C48.7307 90.1486 49.5236 90.9455 49.5236 91.9259C49.5236 92.9064 48.7306 93.7032 47.7502 93.7032C46.7698 93.7032 45.9729 92.9064 45.9729 91.9259C45.9729 90.9455 46.7698 90.1486 47.7502 90.1486ZM29.3952 90.1486C30.3757 90.1486 31.1725 90.9455 31.1725 91.9259C31.1725 92.9064 30.3756 93.7032 29.3952 93.7032C28.4148 93.7032 27.6179 92.9064 27.6179 91.9259C27.6179 90.9455 28.4148 90.1486 29.3952 90.1486ZM38.4733 90.1486C39.4538 90.1486 40.2506 90.9455 40.2506 91.9259C40.2506 92.9064 39.4537 93.7032 38.4733 93.7032C37.4929 93.7032 36.696 92.9064 36.696 91.9259C36.696 90.9455 37.4929 90.1486 38.4733 90.1486ZM34.028 90.0861C35.0163 90.0861 35.821 90.8869 35.821 91.8752C35.821 92.8636 35.0163 93.6682 34.028 93.6682C33.0397 93.6682 32.2389 92.8636 32.2389 91.8752C32.2389 90.8869 33.0397 90.0861 34.028 90.0861ZM38.5007 85.4611C39.4812 85.4611 40.278 86.258 40.278 87.2384C40.278 88.215 39.4811 89.0118 38.5007 89.0118C37.5203 89.0118 36.7273 88.215 36.7273 87.2384C36.7273 86.258 37.5203 85.4611 38.5007 85.4611ZM34.0359 85.4611C35.0164 85.4611 35.8132 86.258 35.8132 87.2384C35.8132 88.215 35.0163 89.0118 34.0359 89.0118C33.0555 89.0118 32.2625 88.215 32.2625 87.2384C32.2625 86.258 33.0555 85.4611 34.0359 85.4611ZM20.2269 85.4611C21.2074 85.4611 22.0042 86.258 22.0042 87.2384C22.0042 88.215 21.2073 89.0118 20.2269 89.0118C19.2503 89.0118 18.4535 88.215 18.4535 87.2384C18.4535 86.258 19.2504 85.4611 20.2269 85.4611ZM52.2889 85.4143C53.2694 85.4143 54.0623 86.2072 54.0623 87.1877C54.0623 88.1681 53.2693 88.965 52.2889 88.965C51.3085 88.965 50.5116 88.1681 50.5116 87.1877C50.5116 86.2072 51.3085 85.4143 52.2889 85.4143ZM29.3939 85.4143C30.3744 85.4143 31.1712 86.2072 31.1712 87.1877C31.1712 88.1681 30.3743 88.965 29.3939 88.965C28.4135 88.965 27.6166 88.1681 27.6166 87.1877C27.6166 86.2072 28.4135 85.4143 29.3939 85.4143ZM24.9095 85.301C25.8978 85.301 26.6986 86.1057 26.6986 87.094C26.6986 88.0823 25.8978 88.8831 24.9095 88.8831C23.9212 88.8831 23.1165 88.0823 23.1165 87.094C23.1165 86.1057 23.9212 85.301 24.9095 85.301ZM41.4645 87.7072C41.3942 87.5158 41.3551 87.3088 41.3551 87.0939C41.3551 86.1056 42.1598 85.3009 43.1481 85.3009C44.1364 85.3009 44.9372 86.1056 44.9372 87.0939C44.9372 88.0822 44.1365 88.883 43.1481 88.883C42.7731 88.883 42.4255 88.7697 42.1403 88.5744C41.9333 88.2736 41.6793 87.9963 41.4645 87.7072ZM48.4333 88.7306C48.2106 88.8282 47.9646 88.8829 47.7067 88.8829C46.7185 88.8829 45.9137 88.0821 45.9137 87.0938C45.9137 86.1055 46.7184 85.3008 47.7067 85.3008C48.6951 85.3008 49.4958 86.1055 49.4958 87.0938C49.4958 87.4805 49.3748 87.8399 49.1638 88.1329C48.9998 88.2228 48.8396 88.3243 48.699 88.4493C48.6052 88.5353 48.5153 88.629 48.4333 88.7306ZM52.2888 80.6759C53.2693 80.6759 54.0622 81.4728 54.0622 82.4532C54.0622 83.4336 53.2692 84.2305 52.2888 84.2305C51.3084 84.2305 50.5115 83.4336 50.5115 82.4532C50.5115 81.4728 51.3084 80.6759 52.2888 80.6759ZM61.4802 80.6759C62.4607 80.6759 63.2575 81.4728 63.2575 82.4532C63.2575 83.4336 62.4606 84.2305 61.4802 84.2305C60.4997 84.2305 59.7068 83.4336 59.7068 82.4532C59.7068 81.4728 60.4998 80.6759 61.4802 80.6759ZM66.0935 80.6759C67.074 80.6759 67.8708 81.4728 67.8708 82.4532C67.8708 83.4336 67.0739 84.2305 66.0935 84.2305C65.1131 84.2305 64.3201 83.4336 64.3201 82.4532C64.3201 81.4728 65.1131 80.6759 66.0935 80.6759ZM70.3513 80.6759C71.3318 80.6759 72.1286 81.4728 72.1286 82.4532C72.1286 83.4336 71.3317 84.2305 70.3513 84.2305C69.3747 84.2305 68.5779 83.4336 68.5779 82.4532C68.5779 81.4728 69.3748 80.6759 70.3513 80.6759ZM43.1483 80.5353C44.1366 80.5353 44.9374 81.34 44.9374 82.3283C44.9374 83.3166 44.1366 84.1174 43.1483 84.1174C42.16 84.1174 41.3553 83.3166 41.3553 82.3283C41.3553 81.34 42.16 80.5353 43.1483 80.5353ZM47.7069 80.5353C48.6952 80.5353 49.496 81.34 49.496 82.3283C49.496 83.3166 48.6952 84.1174 47.7069 84.1174C46.7186 84.1174 45.9139 83.3166 45.9139 82.3283C45.9139 81.34 46.7186 80.5353 47.7069 80.5353ZM56.8241 80.5353C57.8124 80.5353 58.6171 81.34 58.6171 82.3283C58.6171 83.3166 57.8124 84.1174 56.8241 84.1174C55.8358 84.1174 55.035 83.3166 55.035 82.3283C55.035 81.34 55.8358 80.5353 56.8241 80.5353ZM38.5861 80.5353C39.5783 80.5353 40.3791 81.34 40.3791 82.3283C40.3791 83.3166 39.5783 84.1174 38.5861 84.1174C37.5978 84.1174 36.797 83.3166 36.797 82.3283C36.797 81.34 37.5978 80.5353 38.5861 80.5353ZM34.0275 80.5353C35.0158 80.5353 35.8205 81.34 35.8205 82.3283C35.8205 83.3166 35.0158 84.1174 34.0275 84.1174C33.0392 84.1174 32.2384 83.3166 32.2384 82.3283C32.2384 81.34 33.0392 80.5353 34.0275 80.5353ZM24.8556 80.4806C25.8361 80.4806 26.6329 81.2736 26.6329 82.254C26.6329 83.2345 25.836 84.0313 24.8556 84.0313C23.8751 84.0313 23.0783 83.2344 23.0783 82.254C23.0783 81.2735 23.8752 80.4806 24.8556 80.4806ZM29.3947 80.4806C30.3752 80.4806 31.172 81.2736 31.172 82.254C31.172 83.2345 30.3751 84.0313 29.3947 84.0313C28.4143 84.0313 27.6174 83.2344 27.6174 82.254C27.6174 81.2735 28.4143 80.4806 29.3947 80.4806ZM56.8247 75.7697C57.813 75.7697 58.6177 76.5705 58.6177 77.5627C58.6177 78.551 57.813 79.3518 56.8247 79.3518C55.8364 79.3518 55.0356 78.551 55.0356 77.5627C55.0356 76.5705 55.8364 75.7697 56.8247 75.7697ZM52.2661 75.7697C53.2544 75.7697 54.0591 76.5705 54.0591 77.5627C54.0591 78.551 53.2544 79.3518 52.2661 79.3518C51.2778 79.3518 50.4731 78.551 50.4731 77.5627C50.4731 76.5705 51.2778 75.7697 52.2661 75.7697ZM61.3833 75.7697C62.3716 75.7697 63.1763 76.5705 63.1763 77.5627C63.1763 78.551 62.3716 79.3518 61.3833 79.3518C60.395 79.3518 59.5942 78.551 59.5942 77.5627C59.5942 76.5705 60.395 75.7697 61.3833 75.7697ZM65.9419 75.7697C66.9341 75.7697 67.7349 76.5705 67.7349 77.5627C67.7349 78.551 66.9341 79.3518 65.9419 79.3518C64.9536 79.3518 64.1528 78.551 64.1528 77.5627C64.1528 76.5705 64.9536 75.7697 65.9419 75.7697ZM70.3521 75.7736C71.3326 75.7736 72.1294 76.5666 72.1294 77.5509C72.1294 78.5314 71.3325 79.3243 70.3521 79.3243C69.3755 79.3243 68.5787 78.5313 68.5787 77.5509C68.5787 76.5665 69.3756 75.7736 70.3521 75.7736ZM47.7501 75.7423C48.7306 75.7423 49.5235 76.5392 49.5235 77.5196C49.5235 78.5001 48.7305 79.2969 47.7501 79.2969C46.7697 79.2969 45.9728 78.5001 45.9728 77.5196C45.9728 76.5392 46.7697 75.7423 47.7501 75.7423ZM70.3521 71.0626C71.3326 71.0626 72.1294 71.8595 72.1294 72.8399C72.1294 73.8204 71.3325 74.6133 70.3521 74.6133C69.3755 74.6133 68.5787 73.8204 68.5787 72.8399C68.5787 71.8595 69.3756 71.0626 70.3521 71.0626ZM61.3833 71.004C62.3716 71.004 63.1763 71.8048 63.1763 72.7931C63.1763 73.7853 62.3716 74.5861 61.3833 74.5861C60.395 74.5861 59.5942 73.7854 59.5942 72.7931C59.5942 71.8049 60.395 71.004 61.3833 71.004ZM56.8247 71.004C57.813 71.004 58.6177 71.8048 58.6177 72.7931C58.6177 73.7853 57.813 74.5861 56.8247 74.5861C55.8364 74.5861 55.0356 73.7854 55.0356 72.7931C55.0356 71.8049 55.8364 71.004 56.8247 71.004ZM65.9419 71.004C66.9341 71.004 67.7349 71.8048 67.7349 72.7931C67.7349 73.7853 66.9341 74.5861 65.9419 74.5861C64.9536 74.5861 64.1528 73.7854 64.1528 72.7931C64.1528 71.8049 64.9536 71.004 65.9419 71.004ZM52.2659 71.004C53.2542 71.004 54.0589 71.8048 54.0589 72.7931C54.0589 73.7853 53.2542 74.5861 52.2659 74.5861C51.2776 74.5861 50.4729 73.7854 50.4729 72.7931C50.4729 71.8049 51.2776 71.004 52.2659 71.004ZM65.9419 66.2384C66.9341 66.2384 67.7349 67.0392 67.7349 68.0275C67.7349 69.0158 66.9341 69.8205 65.9419 69.8205C64.9536 69.8205 64.1528 69.0159 64.1528 68.0275C64.1528 67.0393 64.9536 66.2384 65.9419 66.2384ZM61.3833 66.2384C62.3716 66.2384 63.1763 67.0392 63.1763 68.0275C63.1763 69.0158 62.3716 69.8205 61.3833 69.8205C60.395 69.8205 59.5942 69.0159 59.5942 68.0275C59.5942 67.0393 60.395 66.2384 61.3833 66.2384ZM70.5044 66.2384C71.4927 66.2384 72.2935 67.0392 72.2935 68.0275C72.2935 69.0158 71.4927 69.8205 70.5044 69.8205C69.5161 69.8205 68.7114 69.0159 68.7114 68.0275C68.7114 67.0393 69.5161 66.2384 70.5044 66.2384ZM70.5044 61.4728C71.4927 61.4728 72.2935 62.2736 72.2935 63.2619C72.2935 64.2503 71.4927 65.0549 70.5044 65.0549C69.5161 65.0549 68.7114 64.2503 68.7114 63.2619C68.7114 62.2736 69.5161 61.4728 70.5044 61.4728ZM65.9419 61.4728C66.9341 61.4728 67.7349 62.2736 67.7349 63.2619C67.7349 64.2503 66.9341 65.0549 65.9419 65.0549C64.9536 65.0549 64.1528 64.2503 64.1528 63.2619C64.1528 62.2736 64.9536 61.4728 65.9419 61.4728ZM66.0942 56.7384C67.0747 56.7384 67.8715 57.5353 67.8715 58.5157C67.8715 59.4962 67.0747 60.2891 66.0942 60.2891C65.1138 60.2891 64.3208 59.4962 64.3208 58.5157C64.3208 57.5353 65.1138 56.7384 66.0942 56.7384ZM75.0004 56.7384C75.9809 56.7384 76.7738 57.5353 76.7738 58.5157C76.7738 59.4962 75.9809 60.2891 75.0004 60.2891C74.02 60.2891 73.2231 59.4962 73.2231 58.5157C73.2231 57.5353 74.02 56.7384 75.0004 56.7384ZM70.5043 56.7033C71.4926 56.7033 72.2934 57.508 72.2934 58.4963C72.2934 59.4846 71.4927 60.2854 70.5043 60.2854C69.516 60.2854 68.7113 59.4846 68.7113 58.4963C68.7113 57.508 69.516 56.7033 70.5043 56.7033ZM66.0941 52.2228C67.0746 52.2228 67.8714 53.0197 67.8714 53.9962C67.8714 54.9767 67.0746 55.7735 66.0941 55.7735C65.1137 55.7735 64.3207 54.9766 64.3207 53.9962C64.3207 53.0196 65.1137 52.2228 66.0941 52.2228ZM75.0003 52.2228C75.9808 52.2228 76.7737 53.0197 76.7737 53.9962C76.7737 54.9767 75.9808 55.7735 75.0003 55.7735C74.0199 55.7735 73.223 54.9766 73.223 53.9962C73.223 53.0196 74.0199 52.2228 75.0003 52.2228ZM70.5042 51.9376C71.4925 51.9376 72.2933 52.7423 72.2933 53.7306C72.2933 54.7189 71.4926 55.5197 70.5042 55.5197C69.5159 55.5197 68.7112 54.7189 68.7112 53.7306C68.7112 52.7423 69.5159 51.9376 70.5042 51.9376ZM75.0003 47.2853C75.9808 47.2853 76.7737 48.0822 76.7737 49.0626C76.7737 50.043 75.9808 50.8399 75.0003 50.8399C74.0199 50.8399 73.223 50.043 73.223 49.0626C73.223 48.0822 74.0199 47.2853 75.0003 47.2853ZM66.0941 47.2853C67.0746 47.2853 67.8714 48.0822 67.8714 49.0626C67.8714 50.043 67.0746 50.8399 66.0941 50.8399C65.1137 50.8399 64.3207 50.043 64.3207 49.0626C64.3207 48.0822 65.1137 47.2853 66.0941 47.2853ZM70.5043 47.1721C71.4926 47.1721 72.2934 47.9728 72.2934 48.965C72.2934 49.9533 71.4927 50.7542 70.5043 50.7542C69.516 50.7542 68.7113 49.9534 68.7113 48.965C68.7113 47.9729 69.516 47.1721 70.5043 47.1721ZM70.5043 42.4064C71.4926 42.4064 72.2934 43.2072 72.2934 44.1955C72.2934 45.1838 71.4927 45.9885 70.5043 45.9885C69.516 45.9885 68.7113 45.1839 68.7113 44.1955C68.7113 43.2073 69.516 42.4064 70.5043 42.4064ZM66.0941 42.4143C67.0746 42.4143 67.8714 43.2111 67.8714 44.1916C67.8714 45.172 67.0746 45.9689 66.0941 45.9689C65.1137 45.9689 64.3207 45.172 64.3207 44.1916C64.3207 43.2111 65.1137 42.4143 66.0941 42.4143ZM66.0941 37.8674C67.0746 37.8674 67.8714 38.6603 67.8714 39.6408C67.8714 40.6251 67.0746 41.4181 66.0941 41.4181C65.1137 41.4181 64.3207 40.6251 64.3207 39.6408C64.3207 38.6603 65.1137 37.8674 66.0941 37.8674ZM65.7582 32.8947C66.7387 32.8947 67.5355 33.6876 67.5355 34.6681C67.5355 35.6485 66.7386 36.4454 65.7582 36.4454C64.7778 36.4454 63.9848 35.6485 63.9848 34.6681C63.9848 33.6876 64.7778 32.8947 65.7582 32.8947ZM74.934 32.8947C75.9145 32.8947 76.7113 33.6876 76.7113 34.6681C76.7113 35.6485 75.9144 36.4454 74.934 36.4454C73.9535 36.4454 73.1567 35.6485 73.1567 34.6681C73.1567 33.6876 73.9536 32.8947 74.934 32.8947ZM79.5043 32.8947C80.4848 32.8947 81.2816 33.6876 81.2816 34.6681C81.2816 35.6485 80.4847 36.4454 79.5043 36.4454C78.5239 36.4454 77.727 35.6485 77.727 34.6681C77.727 33.6876 78.5239 32.8947 79.5043 32.8947ZM70.5668 32.8947C71.5434 32.8947 72.3402 33.6876 72.3402 34.6681C72.3402 35.6485 71.5433 36.4454 70.5668 36.4454C69.5863 36.4454 68.7895 35.6485 68.7895 34.6681C68.7895 33.6876 69.5864 32.8947 70.5668 32.8947ZM70.5043 28.1056C71.4926 28.1056 72.2934 28.9103 72.2934 29.8986C72.2934 30.8868 71.4926 31.6877 70.5043 31.6877C69.516 31.6877 68.7113 30.8869 68.7113 29.8986C68.7113 28.9103 69.516 28.1056 70.5043 28.1056ZM75.0629 28.1056C76.0512 28.1056 76.852 28.9103 76.852 29.8986C76.852 30.8868 76.0512 31.6877 75.0629 31.6877C74.0746 31.6877 73.2699 30.8869 73.2699 29.8986C73.2699 28.9103 74.0746 28.1056 75.0629 28.1056ZM79.6215 28.1056C80.6098 28.1056 81.4145 28.9103 81.4145 29.8986C81.4145 30.8868 80.6098 31.6877 79.6215 31.6877C78.6332 31.6877 77.8285 30.8869 77.8285 29.8986C77.8285 28.9103 78.6332 28.1056 79.6215 28.1056ZM84.141 28.086C85.1215 28.086 85.9183 28.8829 85.9183 29.8633C85.9183 30.8438 85.1214 31.6406 84.141 31.6406C83.1605 31.6406 82.3637 30.8438 82.3637 29.8633C82.3637 28.8829 83.1606 28.086 84.141 28.086ZM93.5121 23.4844C94.4926 23.4844 95.2894 24.2774 95.2894 25.2578C95.2894 26.2383 94.4925 27.0351 93.5121 27.0351C92.5316 27.0351 91.7348 26.2382 91.7348 25.2578C91.7348 24.2774 92.5317 23.4844 93.5121 23.4844ZM75.0631 23.3399C76.0514 23.3399 76.8522 24.1446 76.8522 25.1329C76.8522 26.1212 76.0514 26.922 75.0631 26.922C74.0748 26.922 73.2701 26.1212 73.2701 25.1329C73.2701 24.1446 74.0748 23.3399 75.0631 23.3399ZM84.1803 23.3399C85.1686 23.3399 85.9733 24.1446 85.9733 25.1329C85.9733 26.1212 85.1686 26.922 84.1803 26.922C83.192 26.922 82.3912 26.1212 82.3912 25.1329C82.3912 24.1446 83.192 23.3399 84.1803 23.3399ZM88.7389 23.3399C89.7272 23.3399 90.5319 24.1446 90.5319 25.1329C90.5319 26.1212 89.7272 26.922 88.7389 26.922C87.7506 26.922 86.9498 26.1212 86.9498 25.1329C86.9498 24.1446 87.7506 23.3399 88.7389 23.3399ZM79.6217 23.3399C80.61 23.3399 81.4147 24.1446 81.4147 25.1329C81.4147 26.1212 80.61 26.922 79.6217 26.922C78.6334 26.922 77.8287 26.1212 77.8287 25.1329C77.8287 24.1446 78.6334 23.3399 79.6217 23.3399ZM84.1412 18.6797C85.1217 18.6797 85.9185 19.4727 85.9185 20.4531C85.9185 21.4335 85.1216 22.2304 84.1412 22.2304C83.1607 22.2304 82.3639 21.4335 82.3639 20.4531C82.3639 19.4727 83.1608 18.6797 84.1412 18.6797ZM88.7779 18.6797C89.7584 18.6797 90.5552 19.4727 90.5552 20.4531C90.5552 21.4335 89.7583 22.2304 88.7779 22.2304C87.7974 22.2304 87.0045 21.4335 87.0045 20.4531C87.0045 19.4727 87.7975 18.6797 88.7779 18.6797ZM79.5045 18.6797C80.485 18.6797 81.2818 19.4727 81.2818 20.4531C81.2818 21.4335 80.4849 22.2304 79.5045 22.2304C78.5241 22.2304 77.7272 21.4335 77.7272 20.4531C77.7272 19.4727 78.5241 18.6797 79.5045 18.6797ZM75.2311 18.6797C76.2116 18.6797 77.0084 19.4727 77.0084 20.4531C77.0084 21.4335 76.2115 22.2304 75.2311 22.2304C74.2506 22.2304 73.4538 21.4335 73.4538 20.4531C73.4538 19.4727 74.2507 18.6797 75.2311 18.6797ZM75.2311 13.8125C76.2116 13.8125 77.0084 14.6094 77.0084 15.5859C77.0084 16.5703 76.2115 17.3632 75.2311 17.3632C74.2506 17.3632 73.4538 16.5702 73.4538 15.5859C73.4538 14.6093 74.2507 13.8125 75.2311 13.8125Z" fill="#707070"/>
</svg>
