<svg width="63" height="64" viewBox="0 0 63 64" fill="none" xmlns="http://www.w3.org/2000/svg">
<rect y="0.6875" width="62.907" height="62.907" rx="31.4535" fill="white" fill-opacity="0.05"/>
<g clip-path="url(#clip0_2001_810)">
<path d="M44.0544 17.3506H18.8468C17.6393 17.3506 16.6628 18.3039 16.6628 19.4825V44.7942C16.6628 45.9728 17.6393 46.9319 18.8468 46.9319H44.0544C45.2619 46.9319 46.2441 45.9728 46.2441 44.7999V19.4825C46.2441 18.3039 45.2619 17.3506 44.0544 17.3506ZM25.439 42.5582H21.048V28.4378H25.439V42.5582ZM23.2435 26.5139C21.8338 26.5139 20.6956 25.3757 20.6956 23.9717C20.6956 22.5678 21.8338 21.4296 23.2435 21.4296C24.6475 21.4296 25.7857 22.5678 25.7857 23.9717C25.7857 25.3699 24.6475 26.5139 23.2435 26.5139ZM41.8705 42.5582H37.4853V35.6944C37.4853 34.0594 37.4564 31.9506 35.2031 31.9506C32.921 31.9506 32.5743 33.7358 32.5743 35.5789V42.5582H28.1949V28.4378H32.401V30.3675H32.4588C33.0423 29.2582 34.4752 28.0854 36.6071 28.0854C41.0501 28.0854 41.8705 31.0088 41.8705 34.8105V42.5582Z" fill="white"/>
</g>
<defs>
<clipPath id="clip0_2001_810">
<rect width="29.5813" height="29.5813" fill="white" transform="translate(16.6628 17.3506)"/>
</clipPath>
</defs>
</svg>
