<svg width="49" height="49" viewBox="0 0 49 49" fill="none" xmlns="http://www.w3.org/2000/svg">
<path d="M41.8312 22.8354C41.3167 19.1329 39.5991 15.7023 36.943 13.072C34.2869 10.4417 30.8397 8.75767 27.1323 8.27931C23.425 7.80094 19.6632 8.55477 16.4264 10.4247C13.1896 12.2946 10.6575 15.1769 9.21995 18.6275M8.16797 10.2117V18.6275H16.5838" stroke="#ADFF15" stroke-width="2" stroke-linecap="round" stroke-linejoin="round"/>
<path d="M8.16797 27.0435C8.68251 30.746 10.4001 34.1766 13.0562 36.8069C15.7123 39.4372 19.1595 41.1212 22.8669 41.5996C26.5742 42.0779 30.336 41.3241 33.5728 39.4542C36.8096 37.5842 39.3417 34.702 40.7793 31.2514M41.8312 39.6672V31.2514H33.4154" stroke="#ADFF15" stroke-width="2" stroke-linecap="round" stroke-linejoin="round"/>
</svg>
