<svg width="84" height="85" viewBox="0 0 84 85" fill="none" xmlns="http://www.w3.org/2000/svg">
<rect y="0.939819" width="84" height="84" rx="42" fill="white" fill-opacity="0.1"/>
<g clip-path="url(#clip0_612_13377)">
<path d="M41.2125 45.2663C39.778 44.2051 38.0122 43.69 36.2321 43.8134C34.4521 43.9368 32.7743 44.6908 31.5 45.9398V32.4398C32.902 31.0656 34.7869 30.2959 36.75 30.2959C38.7131 30.2959 40.598 31.0656 42 32.4398C43.402 33.814 45.2869 34.5838 47.25 34.5838C49.2131 34.5838 51.098 33.814 52.5 32.4398V39.9398" stroke="white" stroke-width="2" stroke-linecap="round" stroke-linejoin="round"/>
<path d="M31.5 56.4398V45.9398" stroke="white" stroke-width="2" stroke-linecap="round" stroke-linejoin="round"/>
<path d="M50.6999 56.1653L47.4419 57.8723C47.3452 57.9226 47.2364 57.9451 47.1277 57.9371C47.019 57.9292 46.9146 57.8913 46.8263 57.8275C46.7379 57.7637 46.669 57.6766 46.6272 57.5759C46.5855 57.4752 46.5726 57.3649 46.5899 57.2573L47.2124 53.6408L44.5769 51.0803C44.4982 51.0042 44.4425 50.9076 44.4161 50.8014C44.3898 50.6952 44.3938 50.5838 44.4277 50.4798C44.4617 50.3757 44.5242 50.2834 44.6081 50.2132C44.692 50.143 44.794 50.0978 44.9024 50.0828L48.5444 49.5548L50.1734 46.2653C50.2221 46.1673 50.2972 46.0849 50.3902 46.0272C50.4832 45.9696 50.5904 45.9391 50.6999 45.9391C50.8093 45.9391 50.9165 45.9696 51.0095 46.0272C51.1026 46.0849 51.1776 46.1673 51.2264 46.2653L52.8554 49.5548L56.4974 50.0828C56.6054 50.0983 56.707 50.1438 56.7905 50.2141C56.8741 50.2843 56.9363 50.3766 56.9702 50.4803C57.0041 50.5841 57.0082 50.6953 56.9822 50.8013C56.9561 50.9074 56.901 51.004 56.8229 51.0803L54.1874 53.6408L54.8084 57.2558C54.827 57.3636 54.815 57.4744 54.7738 57.5758C54.7326 57.6771 54.6638 57.7649 54.5753 57.8291C54.4867 57.8933 54.3819 57.9314 54.2727 57.939C54.1636 57.9467 54.0545 57.9235 53.9579 57.8723L50.6999 56.1653Z" stroke="white" stroke-width="2" stroke-linecap="round" stroke-linejoin="round"/>
</g>
<defs>
<clipPath id="clip0_612_13377">
<rect width="36" height="36" fill="white" transform="translate(24 24.9398)"/>
</clipPath>
</defs>
</svg>
