<svg width="52" height="52" viewBox="0 0 52 52" fill="none" xmlns="http://www.w3.org/2000/svg">
<rect width="52" height="52" rx="26" fill="white" fill-opacity="0.1"/>
<g clip-path="url(#clip0_612_13765)">
<path d="M24 26C24 26.5304 24.2107 27.0391 24.5858 27.4142C24.9609 27.7893 25.4696 28 26 28C26.5304 28 27.0391 27.7893 27.4142 27.4142C27.7893 27.0391 28 26.5304 28 26C28 25.4696 27.7893 24.9609 27.4142 24.5858C27.0391 24.2107 26.5304 24 26 24C25.4696 24 24.9609 24.2107 24.5858 24.5858C24.2107 24.9609 24 25.4696 24 26Z" stroke="white" stroke-width="2" stroke-linecap="round" stroke-linejoin="round"/>
<path d="M26 32C25.672 32 25.348 31.983 25.03 31.95C21.858 31.618 19.18 29.635 17 26C19.4 22 22.4 20 26 20C29.465 20 32.374 21.853 34.727 25.558" stroke="white" stroke-width="2" stroke-linecap="round" stroke-linejoin="round"/>
<path d="M29 32C29 32.7956 29.3161 33.5587 29.8787 34.1213C30.4413 34.6839 31.2044 35 32 35C32.7956 35 33.5587 34.6839 34.1213 34.1213C34.6839 33.5587 35 32.7956 35 32C35 31.2044 34.6839 30.4413 34.1213 29.8787C33.5587 29.3161 32.7956 29 32 29C31.2044 29 30.4413 29.3161 29.8787 29.8787C29.3161 30.4413 29 31.2044 29 32Z" stroke="white" stroke-width="2" stroke-linecap="round" stroke-linejoin="round"/>
<path d="M34.2 34.2L36 36" stroke="white" stroke-width="2" stroke-linecap="round" stroke-linejoin="round"/>
</g>
<defs>
<clipPath id="clip0_612_13765">
<rect width="24" height="24" fill="white" transform="translate(14 14)"/>
</clipPath>
</defs>
</svg>
