<svg width="55" height="56" viewBox="0 0 55 56" fill="none" xmlns="http://www.w3.org/2000/svg">
<path fill-rule="evenodd" clip-rule="evenodd" d="M52.9483 37.7651C53.9043 37.7627 54.6769 38.5438 54.664 39.4997L54.5885 45.096C54.576 46.0285 53.8191 46.7792 52.8865 46.7843L35.932 46.8765C17.5007 46.9778 17.2982 46.9778 16.3867 47.4032C15.9006 47.6462 15.1107 48.1932 14.6651 48.6186C14.2195 49.0643 13.3689 50.2392 12.741 51.2318C12.1334 52.2244 11.2624 53.3993 10.8168 53.845C10.3712 54.2906 9.52057 54.8781 8.89269 55.1617C7.90628 55.627 7.67236 55.6819 1.77918 55.6877C0.841475 55.6886 0.0736345 54.9338 0.0631009 53.9961L0.000110273 48.389C-0.0105243 47.4424 0.749375 46.667 1.69603 46.6584L6.72549 46.6131C13.0651 46.5726 13.5106 46.5524 14.3613 46.1472C14.8677 45.9041 15.6373 45.418 16.0829 45.0331C16.5083 44.6482 17.521 43.3315 18.3109 42.116C19.1211 40.8803 20.073 39.6244 20.4578 39.3003C20.8427 38.9762 21.511 38.5305 21.9566 38.2874C22.7668 37.862 22.8883 37.862 38.7271 37.8012L52.9483 37.7651Z" fill="url(#paint0_linear_2001_764)"/>
<path d="M29.6486 28.4569L52.9625 28.364C53.905 28.3602 54.6671 27.5931 54.6671 26.6506V20.9031C54.6671 19.961 53.9067 19.1977 52.9646 19.1955C51.22 19.1914 48.3227 19.1883 45.1679 19.2009C36.6004 19.2212 35.851 19.2617 34.6155 19.6263C33.7851 19.8896 32.9749 20.315 32.4078 20.8012C31.9014 21.2266 30.8482 22.5636 30.0583 23.7993C29.2684 25.0147 28.2962 26.2909 27.9316 26.615C27.5468 26.9189 26.8581 27.3848 26.4125 27.6279C25.6226 28.033 25.3796 28.0533 12.8422 28.1546L1.76098 28.2425C0.828584 28.2499 0.0736924 29.0024 0.0632222 29.9347L0.000354473 35.5308C-0.0103854 36.4869 0.764321 37.2663 1.72047 37.2614L19.3547 37.171C19.6011 37.1697 19.845 37.1159 20.0669 37.0088C21.5801 36.2781 22.3295 35.7225 22.7263 35.3256C23.1516 34.88 23.9618 33.7658 24.5492 32.8137C25.1365 31.8617 25.9669 30.7273 26.4125 30.2816C26.8581 29.8359 27.6885 29.2282 28.2354 28.9649L28.8899 28.6376C29.1255 28.5197 29.3852 28.4579 29.6486 28.4569Z" fill="url(#paint1_linear_2001_764)"/>
<path d="M54.605 8.03689L54.6681 2.42061C54.6788 1.46794 53.9095 0.689935 52.9568 0.689935L50.7987 0.689935C46.8897 0.689935 46.7304 0.621592 45.5151 1.20905C44.8467 1.53317 44.2161 2.10794 43.9123 2.39154C43.5882 2.67514 42.6768 3.95135 41.8464 5.18704C41.0362 6.44299 40.0033 7.7597 39.5779 8.12433C39.1526 8.46871 38.3829 8.93462 37.8766 9.1372C37.0259 9.48157 35.8309 9.50183 18.4933 9.54234L1.70704 9.59751C0.764042 9.6006 0.00122099 10.3659 0.00122095 11.3089L0.0012207 17.0074C0.00122066 17.9526 0.787025 18.7189 1.73223 18.7189C29.8833 18.7187 30.5693 18.7113 31.8003 18.334C32.6307 18.0706 33.4409 17.6452 34.008 17.1591C34.5144 16.7337 35.5676 15.3967 36.3575 14.161C37.1474 12.9253 38.1196 11.6693 38.5044 11.3452C38.8893 11.0211 39.5577 10.5755 40.0033 10.3324C40.7729 9.92723 41.178 9.90697 47.6999 9.80569L52.9188 9.72892C53.8467 9.71528 54.5946 8.96474 54.605 8.03689Z" fill="url(#paint2_linear_2001_764)"/>
<defs>
<linearGradient id="paint0_linear_2001_764" x1="-7.83586" y1="55.716" x2="58.6963" y2="38.4903" gradientUnits="userSpaceOnUse">
<stop stop-color="white"/>
<stop offset="0.364966" stop-color="white"/>
<stop offset="0.466818" stop-color="#FF5F45"/>
<stop offset="0.735012" stop-color="#EFBA0A"/>
<stop offset="1" stop-color="#02E4FD"/>
</linearGradient>
<linearGradient id="paint1_linear_2001_764" x1="6.55696" y1="34.6577" x2="56.0156" y2="21.3998" gradientUnits="userSpaceOnUse">
<stop stop-color="white"/>
<stop offset="0.385259" stop-color="white"/>
<stop offset="0.580677" stop-color="#409144"/>
<stop offset="1" stop-color="#ADFF15"/>
</linearGradient>
<linearGradient id="paint2_linear_2001_764" x1="6.57751" y1="16.1123" x2="56.0207" y2="2.82765" gradientUnits="userSpaceOnUse">
<stop stop-color="white"/>
<stop offset="0.597246" stop-color="white"/>
<stop offset="0.749585" stop-color="#FF5F45"/>
<stop offset="1" stop-color="#E375E9"/>
</linearGradient>
</defs>
</svg>
