<svg width="189" height="55" viewBox="0 0 189 55" fill="none" xmlns="http://www.w3.org/2000/svg">
<path fill-rule="evenodd" clip-rule="evenodd" d="M52.9484 37.0776C53.9043 37.0752 54.6769 37.8563 54.664 38.8122L54.5886 44.4085C54.576 45.341 53.8191 46.0917 52.8866 46.0968L35.9321 46.189C17.5008 46.2903 17.2982 46.2903 16.3868 46.7157C15.9007 46.9587 15.1108 47.5057 14.6652 47.9311C14.2196 48.3768 13.3689 49.5517 12.741 50.5443C12.1334 51.5369 11.2625 52.7118 10.8169 53.1575C10.3713 53.6031 9.5206 54.1906 8.89272 54.4742C7.90631 54.9395 7.67239 54.9944 1.77921 55.0002C0.841506 55.0011 0.073665 54.2463 0.0631314 53.3086L0.00014079 47.7015C-0.0104938 46.7549 0.749406 45.9795 1.69606 45.9709L6.72552 45.9256C13.0651 45.8851 13.5107 45.8649 14.3613 45.4597C14.8677 45.2166 15.6374 44.7305 16.083 44.3456C16.5083 43.9607 17.521 42.644 18.3109 41.4285C19.1211 40.1928 20.073 38.9369 20.4579 38.6128C20.8427 38.2887 21.5111 37.843 21.9567 37.5999C22.7668 37.1745 22.8884 37.1745 38.7271 37.1137L52.9484 37.0776Z" fill="url(#paint0_linear_909_5729)"/>
<path d="M29.6486 27.7694L52.9625 27.6765C53.9051 27.6727 54.6672 26.9056 54.6672 25.9631V20.2156C54.6672 19.2735 53.9068 18.5102 52.9646 18.508C51.22 18.5039 48.3227 18.5008 45.1679 18.5134C36.6004 18.5337 35.851 18.5742 34.6155 18.9388C33.7851 19.2021 32.9749 19.6275 32.4078 20.1137C31.9014 20.5391 30.8482 21.8761 30.0583 23.1118C29.2684 24.3272 28.2962 25.6034 27.9316 25.9275C27.5468 26.2314 26.8582 26.6973 26.4126 26.9404C25.6227 27.3455 25.3796 27.3658 12.8422 27.4671L1.76101 27.555C0.828615 27.5624 0.0737229 28.3149 0.0632527 29.2472L0.000384991 34.8433C-0.0103548 35.7994 0.764352 36.5788 1.7205 36.5739L19.3547 36.4835C19.6011 36.4822 19.845 36.4284 20.0669 36.3213C21.5801 35.5906 22.3295 35.035 22.7263 34.6381C23.1516 34.1925 23.9618 33.0783 24.5492 32.1262C25.1366 31.1742 25.967 30.0398 26.4126 29.5941C26.8582 29.1484 27.6886 28.5407 28.2354 28.2774L28.89 27.9501C29.1256 27.8322 29.3852 27.7704 29.6486 27.7694Z" fill="url(#paint1_linear_909_5729)"/>
<path d="M54.6049 7.34939L54.668 1.73311C54.6787 0.780445 53.9094 0.00243515 52.9566 0.00243511L50.7986 0.00243502C46.8896 0.00243485 46.7303 -0.065908 45.515 0.521551C44.8466 0.845667 44.216 1.42044 43.9122 1.70404C43.5881 1.98764 42.6767 3.26385 41.8463 4.49954C41.0361 5.75549 40.0031 7.0722 39.5778 7.43683C39.1525 7.78121 38.3828 8.24712 37.8764 8.4497C37.0258 8.79407 35.8308 8.81433 18.4932 8.85484L1.70692 8.91001C0.76392 8.9131 0.00109892 9.67843 0.00109888 10.6214L0.00109863 16.3199C0.00109859 17.2651 0.786903 18.0314 1.73211 18.0314C29.8831 18.0312 30.5692 18.0238 31.8002 17.6465C32.6306 17.3831 33.4408 16.9577 34.0079 16.4716C34.5142 16.0462 35.5675 14.7092 36.3574 13.4735C37.1473 12.2378 38.1195 10.9818 38.5043 10.6577C38.8892 10.3336 39.5575 9.88796 40.0031 9.64487C40.7728 9.23973 41.1779 9.21947 47.6997 9.11819L52.9187 9.04142C53.8465 9.02778 54.5945 8.27724 54.6049 7.34939Z" fill="url(#paint2_linear_909_5729)"/>
<path d="M70.8937 36V16.0264H73.3191V36H70.8937ZM72.2348 27.925V25.5852H78.2839C79.4633 25.5852 80.3764 25.2713 81.0232 24.6436C81.689 23.9968 82.0219 23.1123 82.0219 21.99H84.5899C84.5899 23.7971 84.0192 25.2428 82.8779 26.3271C81.7555 27.3923 80.2528 27.925 78.3695 27.925H72.2348ZM82.0219 21.99C82.0219 20.8676 81.689 19.9831 81.0232 19.3363C80.3764 18.6896 79.4633 18.3662 78.2839 18.3662H72.2348V16.0264H78.3695C80.2528 16.0264 81.7555 16.5685 82.8779 17.6528C84.0192 18.7181 84.5899 20.1638 84.5899 21.99H82.0219ZM82.0504 36L77.2282 27.3258L79.4538 26.4127L84.704 35.7717V36H82.0504ZM96.5629 36V16.0264H98.9883V36H96.5629ZM124.931 36L117.712 16.6256L117.512 16.0264H119.937L127.527 35.7717V36H124.931ZM109.922 36V35.7717L117.512 16.0264H119.937L119.738 16.6256L112.519 36H109.922ZM112.861 30.8639L113.717 28.4956H124.018L124.874 30.8639H112.861ZM151.524 36L138.427 16.7112V16.0264H140.853L153.95 35.3152V36H151.524ZM138.427 36V16.0264H140.853V36H138.427ZM151.524 36V16.0264H153.95V36H151.524Z" fill="white"/>
<path d="M173.214 14V4.81674H174.198V14H173.214ZM170.328 5.77442V4.81674H177.071V5.77442H170.328ZM182.6 14L182.613 13.7245L186.418 4.81674H187.349V5.09224L183.545 14H182.6ZM178.455 14V4.81674H179.438V14H178.455ZM182.613 14L178.796 5.09224V4.81674H179.74L183.545 13.7245V14H182.613ZM186.706 14V4.81674H187.69V14H186.706Z" fill="white"/>
<defs>
<linearGradient id="paint0_linear_909_5729" x1="-7.83583" y1="55.0285" x2="58.6963" y2="37.8028" gradientUnits="userSpaceOnUse">
<stop stop-color="white"/>
<stop offset="0.364966" stop-color="white"/>
<stop offset="0.466818" stop-color="#FF5F45"/>
<stop offset="0.735012" stop-color="#EFBA0A"/>
<stop offset="1" stop-color="#02E4FD"/>
</linearGradient>
<linearGradient id="paint1_linear_909_5729" x1="6.55699" y1="33.9702" x2="56.0156" y2="20.7123" gradientUnits="userSpaceOnUse">
<stop stop-color="white"/>
<stop offset="0.385259" stop-color="white"/>
<stop offset="0.580677" stop-color="#409144"/>
<stop offset="1" stop-color="#ADFF15"/>
</linearGradient>
<linearGradient id="paint2_linear_909_5729" x1="6.57739" y1="15.4248" x2="56.0206" y2="2.14015" gradientUnits="userSpaceOnUse">
<stop stop-color="white"/>
<stop offset="0.597246" stop-color="white"/>
<stop offset="0.749585" stop-color="#FF5F45"/>
<stop offset="1" stop-color="#E375E9"/>
</linearGradient>
</defs>
</svg>
