<svg width="105" height="106" viewBox="0 0 105 106" fill="none" xmlns="http://www.w3.org/2000/svg">
<path d="M41.0212 99.9398V90.7565H42.0051V99.9398H41.0212ZM41.5853 96.1878V95.217H44.3534C44.9044 95.217 45.3373 95.0639 45.6522 94.7578C45.967 94.443 46.1245 94.0144 46.1245 93.4721H47.1871C47.1871 94.2943 46.9291 94.9546 46.4131 95.4531C45.8971 95.9429 45.2105 96.1878 44.3534 96.1878H41.5853ZM46.1245 93.4721C46.1245 92.9299 45.967 92.5057 45.6522 92.1996C45.3373 91.8848 44.9044 91.7273 44.3534 91.7273H41.5853V90.7565H44.3534C45.2105 90.7565 45.8971 91.0014 46.4131 91.4912C46.9291 91.981 47.1871 92.6413 47.1871 93.4721H46.1245ZM46.1769 99.9398L43.9074 95.9516L44.7995 95.5318L47.2527 99.8348V99.9398H46.1769ZM52.7591 99.9398V90.7565H53.743V99.9398H52.7591ZM65.699 99.9398L62.3799 91.032L62.288 90.7565H63.2719L66.7616 99.8348V99.9398H65.699ZM58.7984 99.9398V99.8348L62.288 90.7565H63.2719L63.1801 91.032L59.861 99.9398H58.7984ZM60.084 97.5128L60.4776 96.5551H65.2135L65.6071 97.5128H60.084ZM77.8364 99.9398L71.8148 91.032V90.7565H72.7988L78.8204 99.6643V99.9398H77.8364ZM71.8148 99.9398V90.7565H72.7988V99.9398H71.8148ZM77.8364 99.9398V90.7565H78.8204V99.9398H77.8364Z" fill="white"/>
<path fill-rule="evenodd" clip-rule="evenodd" d="M77.8981 68.5486C79.3044 68.5451 80.4411 69.6942 80.4221 71.1005L80.3111 79.3338C80.2926 80.7057 79.1791 81.8103 77.8071 81.8177L52.8635 81.9533C25.7472 82.1023 25.4492 82.1023 24.1083 82.7282C23.3932 83.0858 22.231 83.8905 21.5755 84.5163C20.9199 85.172 19.6684 86.9005 18.7446 88.3609C17.8507 89.8212 16.5694 91.5497 15.9138 92.2054C15.2583 92.8611 14.0067 93.7253 13.083 94.1426C11.6318 94.8272 11.2876 94.9079 2.61755 94.9165C1.23799 94.9179 0.108332 93.8073 0.0928346 92.4278L0.000162234 84.1786C-0.0154834 82.7859 1.10249 81.6451 2.49521 81.6325L9.8946 81.5659C19.2214 81.5063 19.877 81.4765 21.1285 80.8804C21.8734 80.5228 23.0058 79.8075 23.6613 79.2413C24.2871 78.675 25.777 76.7379 26.9391 74.9497C28.1311 73.1317 29.5316 71.284 30.0977 70.8071C30.6639 70.3303 31.6472 69.6746 32.3028 69.317C33.4947 68.6912 33.6735 68.6912 56.9757 68.6017L77.8981 68.5486Z" fill="url(#paint0_linear_909_1702)"/>
<path d="M43.6194 54.8544L77.919 54.7177C79.3057 54.7122 80.4269 53.5837 80.4269 52.197V43.7413C80.4269 42.3552 79.3082 41.2322 77.9221 41.229C75.3554 41.2229 71.0928 41.2185 66.4516 41.237C53.8469 41.2668 52.7444 41.3264 50.9267 41.8628C49.705 42.2503 48.5131 42.8761 47.6787 43.5914C46.9338 44.2172 45.3843 46.1842 44.2221 48.0022C43.06 49.7903 41.6297 51.6679 41.0933 52.1447C40.5272 52.5918 39.514 53.2772 38.8585 53.6348C37.6964 54.2309 37.3388 54.2607 18.8937 54.4097L2.59089 54.5391C1.21915 54.55 0.108546 55.657 0.0931421 57.0287L0.000650603 65.2616C-0.0151499 66.6682 1.12461 67.815 2.5313 67.8078L28.4749 67.6747C28.8374 67.6728 29.1963 67.5937 29.5227 67.4361C31.7489 66.3611 32.8514 65.5437 33.4352 64.9598C34.061 64.3042 35.2529 62.665 36.1171 61.2643C36.9812 59.8636 38.2029 58.1946 38.8585 57.539C39.514 56.8833 40.7358 55.9893 41.5403 55.6018L42.5033 55.1203C42.8499 54.9469 43.2318 54.856 43.6194 54.8544Z" fill="url(#paint1_linear_909_1702)"/>
<path d="M80.335 24.8125L80.4279 16.5498C80.4436 15.1482 79.3118 14.0036 77.9101 14.0036L74.7352 14.0036C68.9842 14.0036 68.7498 13.903 66.9619 14.7673C65.9786 15.2442 65.0508 16.0898 64.6038 16.507C64.1271 16.9242 62.7862 18.8018 61.5644 20.6198C60.3725 22.4675 58.8528 24.4047 58.227 24.9411C57.6013 25.4478 56.469 26.1332 55.724 26.4313C54.4725 26.9379 52.7144 26.9677 27.2072 27.0273L2.51109 27.1085C1.12373 27.113 0.00146527 28.239 0.00146521 29.6264L0.00146484 38.01C0.00146478 39.4006 1.15755 40.5279 2.54814 40.5279C43.9642 40.5277 44.9735 40.5167 46.7846 39.9616C48.0063 39.5742 49.1982 38.9484 50.0326 38.2331C50.7775 37.6072 52.327 35.6403 53.4891 33.8223C54.6513 32.0044 56.0816 30.1566 56.6477 29.6798C57.2139 29.2029 58.1972 28.5473 58.8528 28.1896C59.9851 27.5936 60.5811 27.5638 70.1761 27.4148L77.8543 27.3018C79.2193 27.2818 80.3197 26.1776 80.335 24.8125Z" fill="url(#paint2_linear_909_1702)"/>
<path d="M89.2141 14V4.81674H90.1981V14H89.2141ZM86.328 5.77442V4.81674H93.0711V5.77442H86.328ZM98.6001 14L98.6132 13.7245L102.418 4.81674H103.349V5.09224L99.5447 14H98.6001ZM94.4545 14V4.81674H95.4385V14H94.4545ZM98.6132 14L94.7956 5.09224V4.81674H95.7402L99.5447 13.7245V14H98.6132ZM102.706 14V4.81674H103.69V14H102.706Z" fill="white"/>
<defs>
<linearGradient id="paint0_linear_909_1702" x1="-11.5282" y1="94.9581" x2="86.3545" y2="69.6154" gradientUnits="userSpaceOnUse">
<stop stop-color="white"/>
<stop offset="0.364966" stop-color="white"/>
<stop offset="0.466818" stop-color="#FF5F45"/>
<stop offset="0.735012" stop-color="#EFBA0A"/>
<stop offset="1" stop-color="#02E4FD"/>
</linearGradient>
<linearGradient id="paint1_linear_909_1702" x1="9.64678" y1="63.9771" x2="82.4108" y2="44.4719" gradientUnits="userSpaceOnUse">
<stop stop-color="white"/>
<stop offset="0.385259" stop-color="white"/>
<stop offset="0.580677" stop-color="#409144"/>
<stop offset="1" stop-color="#ADFF15"/>
</linearGradient>
<linearGradient id="paint2_linear_909_1702" x1="9.67656" y1="36.6931" x2="82.4178" y2="17.1486" gradientUnits="userSpaceOnUse">
<stop stop-color="white"/>
<stop offset="0.597246" stop-color="white"/>
<stop offset="0.749585" stop-color="#FF5F45"/>
<stop offset="1" stop-color="#E375E9"/>
</linearGradient>
</defs>
</svg>
