<svg width="81" height="92" viewBox="0 0 81 92" fill="none" xmlns="http://www.w3.org/2000/svg">
<path fill-rule="evenodd" clip-rule="evenodd" d="M78.3981 54.5486C79.8044 54.5451 80.9411 55.6942 80.9221 57.1005L80.8111 65.3338C80.7926 66.7057 79.6791 67.8103 78.3071 67.8177L53.3635 67.9533C26.2472 68.1023 25.9492 68.1023 24.6083 68.7282C23.8932 69.0858 22.731 69.8905 22.0755 70.5163C21.4199 71.172 20.1684 72.9005 19.2446 74.3609C18.3507 75.8212 17.0694 77.5497 16.4138 78.2054C15.7583 78.8611 14.5067 79.7253 13.583 80.1426C12.1318 80.8272 11.7876 80.9079 3.11755 80.9165C1.73799 80.9179 0.608332 79.8073 0.592835 78.4278L0.500162 70.1786C0.484517 68.7859 1.60249 67.6451 2.99521 67.6325L10.3946 67.5659C19.7214 67.5063 20.377 67.4765 21.6285 66.8804C22.3734 66.5228 23.5058 65.8075 24.1613 65.2413C24.7871 64.675 26.277 62.7379 27.4391 60.9497C28.6311 59.1317 30.0316 57.284 30.5977 56.8071C31.1639 56.3303 32.1472 55.6746 32.8028 55.317C33.9947 54.6912 34.1735 54.6912 57.4757 54.6017L78.3981 54.5486Z" fill="url(#paint0_linear_771_2)"/>
<path d="M44.1193 40.8544L78.4189 40.7177C79.8056 40.7122 80.9268 39.5837 80.9268 38.197V29.7413C80.9268 28.3552 79.8081 27.2322 78.422 27.229C75.8553 27.2229 71.5927 27.2185 66.9514 27.237C54.3468 27.2668 53.2443 27.3264 51.4266 27.8628C50.2049 28.2503 49.013 28.8761 48.1786 29.5914C47.4337 30.2172 45.8842 32.1842 44.722 34.0022C43.5599 35.7903 42.1296 37.6679 41.5932 38.1447C41.0271 38.5918 40.0139 39.2772 39.3584 39.6348C38.1962 40.2309 37.8386 40.2607 19.3936 40.4097L3.09077 40.5391C1.71903 40.55 0.608424 41.657 0.59302 43.0287L0.500529 51.2616C0.484728 52.6682 1.62448 53.815 3.03118 53.8078L28.9748 53.6747C29.3373 53.6728 29.6961 53.5937 30.0226 53.4361C32.2488 52.3611 33.3513 51.5437 33.9351 50.9598C34.5609 50.3042 35.7528 48.665 36.6169 47.2643C37.4811 45.8636 38.7028 44.1946 39.3584 43.539C40.0139 42.8833 41.2356 41.9893 42.0402 41.6018L43.0031 41.1203C43.3498 40.9469 43.7317 40.856 44.1193 40.8544Z" fill="url(#paint1_linear_771_2)"/>
<path d="M80.8352 10.8125L80.928 2.54977C80.9437 1.1482 79.8119 0.00359025 78.4102 0.00359019L75.2353 0.00359005C69.4843 0.0035898 69.2499 -0.0969568 67.462 0.767318C66.4787 1.24416 65.5509 2.08977 65.104 2.50701C64.6272 2.92424 63.2863 4.80181 62.0646 6.61977C60.8726 8.46753 59.3529 10.4047 58.7272 10.9411C58.1014 11.4478 56.9691 12.1332 56.2241 12.4313C54.9726 12.9379 53.2145 12.9677 27.7073 13.0273L3.01121 13.1085C1.62386 13.113 0.501587 14.239 0.501587 15.6264L0.501587 24.01C0.501587 25.4006 1.65767 26.5279 3.04826 26.5279C44.4643 26.5277 45.4736 26.5167 47.2847 25.9616C48.5064 25.5742 49.6983 24.9484 50.5327 24.2331C51.2776 23.6072 52.8271 21.6403 53.9893 19.8223C55.1514 18.0044 56.5817 16.1566 57.1479 15.6798C57.714 15.2029 58.6974 14.5473 59.3529 14.1896C60.4853 13.5936 61.0812 13.5638 70.6762 13.4148L78.3544 13.3018C79.7195 13.2818 80.8198 12.1776 80.8352 10.8125Z" fill="url(#paint2_linear_771_2)"/>
<path d="M41.5212 85.9398V76.7565H42.5051V85.9398H41.5212ZM42.0853 82.1878V81.217H44.8534C45.4044 81.217 45.8373 81.0639 46.1522 80.7578C46.467 80.443 46.6245 80.0144 46.6245 79.4721H47.6871C47.6871 80.2943 47.4291 80.9546 46.9131 81.4531C46.3971 81.9429 45.7105 82.1878 44.8534 82.1878H42.0853ZM46.6245 79.4721C46.6245 78.9299 46.467 78.5057 46.1522 78.1996C45.8373 77.8848 45.4044 77.7273 44.8534 77.7273H42.0853V76.7565H44.8534C45.7105 76.7565 46.3971 77.0014 46.9131 77.4912C47.4291 77.981 47.6871 78.6413 47.6871 79.4721H46.6245ZM46.6769 85.9398L44.4074 81.9516L45.2995 81.5318L47.7527 85.8348V85.9398H46.6769ZM53.2591 85.9398V76.7565H54.243V85.9398H53.2591ZM66.199 85.9398L62.8799 77.032L62.788 76.7565H63.7719L67.2616 85.8348V85.9398H66.199ZM59.2984 85.9398V85.8348L62.788 76.7565H63.7719L63.6801 77.032L60.361 85.9398H59.2984ZM60.584 83.5128L60.9776 82.5551H65.7135L66.1071 83.5128H60.584ZM78.3364 85.9398L72.3148 77.032V76.7565H73.2988L79.3204 85.6643V85.9398H78.3364ZM72.3148 85.9398V76.7565H73.2988V85.9398H72.3148ZM78.3364 85.9398V76.7565H79.3204V85.9398H78.3364Z" fill="white"/>
<defs>
<linearGradient id="paint0_linear_771_2" x1="-11.0282" y1="80.9581" x2="86.8545" y2="55.6154" gradientUnits="userSpaceOnUse">
<stop stop-color="white"/>
<stop offset="0.364966" stop-color="white"/>
<stop offset="0.466818" stop-color="#FF5F45"/>
<stop offset="0.735012" stop-color="#EFBA0A"/>
<stop offset="1" stop-color="#02E4FD"/>
</linearGradient>
<linearGradient id="paint1_linear_771_2" x1="10.1467" y1="49.9771" x2="82.9106" y2="30.4719" gradientUnits="userSpaceOnUse">
<stop stop-color="white"/>
<stop offset="0.385259" stop-color="white"/>
<stop offset="0.580677" stop-color="#409144"/>
<stop offset="1" stop-color="#ADFF15"/>
</linearGradient>
<linearGradient id="paint2_linear_771_2" x1="10.1767" y1="22.6931" x2="82.918" y2="3.14861" gradientUnits="userSpaceOnUse">
<stop stop-color="white"/>
<stop offset="0.597246" stop-color="white"/>
<stop offset="0.749585" stop-color="#FF5F45"/>
<stop offset="1" stop-color="#E375E9"/>
</linearGradient>
</defs>
</svg>
