<svg width="64" height="64" viewBox="0 0 64 64" fill="none" xmlns="http://www.w3.org/2000/svg">
<rect x="0.395264" y="0.6875" width="62.907" height="62.907" rx="31.4535" fill="white" fill-opacity="0.05"/>
<g clip-path="url(#clip0_2001_818)">
<path d="M46.345 26.227C46.345 26.227 46.0561 24.1875 45.1663 23.292C44.0397 22.1133 42.7802 22.1076 42.2024 22.0382C38.0657 21.7378 31.8548 21.7378 31.8548 21.7378H31.8432C31.8432 21.7378 25.6323 21.7378 21.4955 22.0382C20.9178 22.1076 19.6583 22.1133 18.5316 23.292C17.6419 24.1875 17.3588 26.227 17.3588 26.227C17.3588 26.227 17.0583 28.6247 17.0583 31.0166V33.2583C17.0583 35.6502 17.353 38.0479 17.353 38.0479C17.353 38.0479 17.6419 40.0874 18.5259 40.983C19.6525 42.1616 21.1316 42.1211 21.7902 42.2482C24.159 42.4736 31.849 42.5429 31.849 42.5429C31.849 42.5429 38.0657 42.5314 42.2024 42.2367C42.7802 42.1674 44.0397 42.1616 45.1663 40.983C46.0561 40.0874 46.345 38.0479 46.345 38.0479C46.345 38.0479 46.6396 35.656 46.6396 33.2583V31.0166C46.6396 28.6247 46.345 26.227 46.345 26.227ZM28.7926 35.9796V27.6656L36.7831 31.837L28.7926 35.9796Z" fill="white"/>
</g>
<defs>
<clipPath id="clip0_2001_818">
<rect width="29.5813" height="29.5813" fill="white" transform="translate(17.0583 17.3506)"/>
</clipPath>
</defs>
</svg>
