<svg xmlns="http://www.w3.org/2000/svg" width="124" height="109" fill="none"><path fill="#fff" fill-opacity=".1" d="M95.125 108.695q-15.393-.993-21.849-11.42-6.455-10.429-6.455-23.34 0-16.386 5.959-30.787 6.455-14.896 16.883-25.821Q100.091 5.907 113.002.94l10.428 14.4q-6.456 3.973-12.415 10.925-5.959 6.456-10.924 14.4a51.4 51.4 0 0 0-5.959 16.884q7.449 0 13.408 2.98 6.455 2.482 9.931 7.944 3.972 5.463 3.972 14.4 0 11.919-7.448 18.87t-18.87 6.952M6.454 98.016Q12.91 108.443 28.8 108.94q10.427 0 17.876-6.952 7.945-6.952 7.945-18.87 0-8.938-3.972-14.4-3.477-5.463-9.932-7.945-5.958-2.98-13.407-2.98a51.4 51.4 0 0 1 5.959-16.883q4.966-7.945 10.924-14.4 5.959-6.953 12.414-10.925L46.18 1.185Q33.27 6.15 22.841 17.572 12.413 28.496 5.957 43.393 0 57.793 0 74.18q0 12.91 6.455 23.835"/></svg>