<svg xmlns="http://www.w3.org/2000/svg" width="52" height="53" fill="none"><path fill="url(#a)" d="M0 26.5C0 12.14 11.64.5 26 .5s26 11.64 26 26-11.64 26-26 26-26-11.64-26-26"/><g stroke="#fff" stroke-linecap="round" stroke-linejoin="round" stroke-width="2" clip-path="url(#b)"><path d="M23.217 35.833h-3.05a2.334 2.334 0 0 1-2.334-2.334v-14a2.333 2.333 0 0 1 2.333-2.333H29.5a2.333 2.333 0 0 1 2.333 2.333v9.334M28.333 34.667l2.333 2.334 4.667-4.667M22.5 21.834h4.667M22.5 26.5h2.333"/></g><defs><linearGradient id="a" x1="302" x2="-8.5" y1="225.995" y2=".495" gradientUnits="userSpaceOnUse"><stop stop-color="#00A7B9"/><stop offset=".756" stop-color="#EAB503"/><stop offset="1" stop-color="#FF5F45"/></linearGradient><clipPath id="b"><path fill="#fff" d="M12 12.5h28v28H12z"/></clipPath></defs></svg>